<svg width="821" height="284" viewBox="0 0 821 284" fill="none" xmlns="http://www.w3.org/2000/svg">
<path fill-rule="evenodd" clip-rule="evenodd" d="M143.537 108.52H86.6953L194.255 2.30859H220.614L143.537 108.52Z" fill="#0067B1"/>
<path fill-rule="evenodd" clip-rule="evenodd" d="M57.9009 108.52H0.110352L154.553 2.30859H181.362L57.9009 108.52Z" fill="#ED1A3C"/>
<path d="M306.737 279.73H241.346V222.398H141.538L141.981 174.625L249.975 2.13574H306.737V165.041H342.26V222.398H306.737V279.73ZM251.179 269.849H296.904V212.517H332.427V174.922H296.904V12.0163H255.407L151.814 177.515L151.494 212.517H251.204V269.849H251.179ZM251.179 174.922H202.701L251.179 69.7187V174.922ZM218.09 165.041H241.346V114.552L218.09 165.041Z" fill="#929292"/>
<path d="M784.863 279.73H719.124V222.398H618.785L619.23 174.625L619.971 173.44L727.798 2.13574H784.863V165.041H820.575V222.398H784.863V279.73ZM729.009 269.849H774.977V212.517H810.689V174.922H774.977V12.0163H733.26L629.116 177.515L628.794 212.517H729.034V269.849H729.009ZM729.009 174.922H680.273L729.009 69.7187V174.922ZM695.744 165.041H719.124V114.552L695.744 165.041Z" fill="#929292"/>
<path d="M481.729 284C446.455 284 414.804 269.369 392.644 242.792C371.174 217.076 359.342 181.262 359.342 142C359.342 59.7311 411.132 0 482.494 0C553.855 0 604.906 59.7311 604.906 142C604.906 224.269 553.116 284 481.754 284H481.729ZM482.494 9.85256C416.85 9.85256 369.202 65.421 369.202 142C369.202 218.579 415.47 274.147 481.754 274.147C548.038 274.147 595.046 218.579 595.046 142C595.046 65.421 547.718 9.85256 482.494 9.85256ZM482.494 231.363C445.223 231.363 419.217 194.613 419.217 142C419.217 89.3873 444.335 52.6373 481.754 52.6373C519.173 52.6373 545.031 90.2248 545.031 142C545.031 193.775 519.912 231.363 482.494 231.363ZM481.729 62.4899C450.227 62.4899 429.052 94.4368 429.052 142C429.052 189.563 451.015 221.51 482.469 221.51C513.922 221.51 535.146 189.563 535.146 142C535.146 94.4368 512.665 62.4899 481.729 62.4899Z" fill="#929292"/>
</svg>
