<svg width="176" height="197" viewBox="0 0 176 197" fill="none" xmlns="http://www.w3.org/2000/svg">
<path d="M47.2639 8.84584C87.3606 20.0775 127.258 31.2692 167.156 42.4212C158.356 73.9255 149.556 105.27 140.756 136.695C137.89 135.899 135.182 135.142 132.474 134.385C128.134 133.19 126.621 133.549 125.904 135.978C125.188 138.448 126.342 139.642 130.563 140.837C131.32 141.036 132.076 141.275 132.833 141.475C134.903 142.032 136.934 142.63 138.965 143.187L135.182 156.769C134.386 156.53 133.709 156.37 133.032 156.171C130.205 155.375 127.378 154.538 124.511 153.821C122.44 153.304 120.847 154.22 120.29 155.972C119.653 157.924 120.409 159.517 122.44 160.393C123.276 160.751 124.192 160.951 125.068 161.19C127.816 161.946 130.563 162.743 133.271 163.5L127.656 183.573C123.436 182.378 119.334 181.223 115.273 180.108C112.924 179.471 111.012 180.307 110.455 182.179C109.858 184.131 111.012 185.883 113.481 186.6C118.339 187.994 123.157 189.308 128.015 190.663C131.678 191.698 133.032 190.941 134.027 187.317C136.416 178.754 138.805 170.191 141.234 161.628C152.383 121.879 163.493 82.0903 174.642 42.3415C175.677 38.5977 174.881 37.1639 171.177 36.1283C129.767 24.5382 88.4357 12.988 47.1046 1.39792C43.521 0.40221 42.0875 1.23861 41.0523 4.82317C41.0523 4.90282 41.0523 4.94265 41.0125 5.02231C27.5142 53.2147 14.0159 101.407 0.517567 149.6C0.358295 150.117 0.199023 150.595 0.119387 151.113C-0.31861 153.423 0.557385 154.937 2.82701 155.574C8.08298 157.087 13.3788 158.561 18.6746 160.035C20.8646 160.632 22.736 159.676 23.2536 157.844C23.7713 156.012 22.6165 154.18 20.5062 153.543C16.8828 152.467 13.2195 151.471 9.55625 150.476C8.95898 150.316 8.36171 150.157 7.80426 149.998L13.4186 130.004C14.1353 130.163 14.7724 130.283 15.3697 130.482C18.0773 131.239 20.7849 132.035 23.4925 132.752C25.7223 133.35 27.4743 132.672 28.1512 131C29.1069 128.809 28.0716 126.857 25.5233 126.101C22.1785 125.105 18.7542 124.189 15.4095 123.233L19.1922 109.652C22.736 110.647 26.1205 111.643 29.5449 112.519C31.8941 113.157 33.5665 112.201 34.0841 110.09C34.5221 108.138 33.6063 106.704 31.3765 106.067C27.9522 105.071 24.488 104.115 21.0636 103.16L24.8463 89.5781L27.4345 90.295C62.3549 100.093 97.2753 109.851 132.196 119.649C132.992 119.888 133.828 120.126 134.664 120.166C136.337 120.246 137.611 119.489 138.089 117.856C138.606 116.144 138.089 114.75 136.496 113.873C135.7 113.435 134.824 113.157 133.948 112.918C98.9476 103.12 63.9874 93.3219 28.9874 83.5241L26.6382 82.8869L30.3811 69.5045C31.257 69.7435 31.9738 69.9427 32.7303 70.1816C63.0716 78.6651 93.3731 87.1884 123.714 95.6718C124.59 95.9108 125.506 96.1099 126.382 96.1498C128.134 96.2294 129.249 95.2735 129.727 93.6804C130.205 92.0474 129.607 90.6933 128.094 89.8569C127.378 89.4586 126.502 89.2594 125.705 89.0205C95.3242 80.4972 64.9431 71.9739 34.5221 63.4904L32.2127 62.8532L35.9954 49.2717L38.3446 49.9488C73.3845 59.7864 108.424 69.5842 143.464 79.382C144.221 79.5811 144.977 79.8599 145.734 79.9396C147.486 80.1387 148.959 79.0235 149.357 77.3507C149.755 75.7178 148.999 74.2441 147.366 73.567C146.65 73.2484 145.893 73.0891 145.136 72.89C110.136 63.0922 75.1763 53.2944 40.1763 43.4966C39.3799 43.2576 38.5835 43.0585 37.7474 42.8195L41.6495 28.9194C42.4857 29.1583 43.2423 29.3575 43.959 29.5566C74.3401 38.0799 104.721 46.6032 135.142 55.0866C136.018 55.3256 136.934 55.5646 137.81 55.5646C139.443 55.6044 140.557 54.6485 140.956 53.1351C141.394 51.6216 140.956 50.2276 139.562 49.3912C138.726 48.9132 137.77 48.5946 136.854 48.3158C106.513 39.7925 76.2115 31.3091 45.8702 22.8256L43.4812 22.1485L47.1842 8.9255L47.2639 8.84584ZM82.025 127.256C82.2639 127.256 82.5028 127.256 82.7417 127.296C84.5335 129.566 86.3253 130.203 87.9977 129.128C89.8691 127.933 90.0682 125.981 88.5153 123.273C87.2809 121.043 86.0466 118.812 84.7724 116.622C83.6973 114.789 82.025 113.834 80.3924 114.63C77.0875 116.263 73.8623 118.135 70.7167 120.126C69.2434 121.043 69.2434 122.715 69.9999 124.189C70.7963 125.702 72.1899 126.141 73.8225 125.782C74.4197 125.663 74.9772 125.424 75.017 125.424C75.0966 129.247 74.8975 133.111 75.2957 136.854C75.8134 141.674 74.8179 145.895 71.6325 149.56C66.7349 155.136 64.6245 161.508 65.8987 168.916C66.8145 174.094 65.7792 178.714 62.2752 182.777C61.3196 183.892 60.9214 185.326 61.7576 186.799C63.0716 189.109 65.7394 189.269 67.6109 187.038C72.3492 181.383 73.8623 174.891 72.6279 167.682C71.7917 162.902 72.9863 158.561 76.1717 154.937C81.3082 149.042 83.1399 142.351 81.8657 134.624C81.4675 132.274 81.9055 129.765 81.9851 127.335L82.025 127.256ZM101.615 132.792C101.615 136.456 101.377 140.32 101.814 144.063C102.372 149.042 101.376 153.383 98.0716 157.127C93.1342 162.783 91.2229 169.315 92.4971 176.723C93.3333 181.661 92.298 186.003 89.0728 189.866C87.4004 191.857 87.48 193.769 89.1922 195.203C90.7849 196.557 92.6962 196.199 94.4084 194.128C98.5892 189.03 100.421 183.135 99.3856 176.603C98.3902 170.549 99.6245 165.372 103.885 160.911C104.522 160.274 105 159.477 105.478 158.68C108.504 153.622 109.579 148.166 108.504 142.351C108.026 139.722 108.185 137.173 109.141 134.425C109.579 134.982 109.818 135.261 110.057 135.58C111.411 137.173 113.003 137.532 114.556 136.615C116.149 135.66 116.746 133.867 115.791 131.995C114.437 129.327 112.924 126.738 111.411 124.109C110.017 121.68 108.146 121.202 105.637 122.556C103.527 123.711 101.416 124.906 99.306 126.101C96.4391 127.694 95.5631 129.287 96.3594 131.278C97.1558 133.19 99.0272 133.668 101.655 132.752L101.615 132.792ZM48.4186 117.856C48.4584 121.56 48.2195 125.225 48.6177 128.849C49.215 134.106 48.0602 138.647 44.5961 142.63C39.8179 148.086 38.0659 154.379 39.3003 161.508C40.1365 166.527 39.1012 171.027 35.7963 175.05C34.1239 177.081 34.4027 179.073 36.1148 180.347C37.7474 181.582 39.4994 181.223 41.1717 179.192C45.4322 174.014 47.2241 168.12 46.1091 161.508C45.2332 156.092 46.1091 151.232 49.7326 147.051C54.7496 141.315 56.5016 134.744 55.1876 127.256C54.7496 124.707 54.7895 122.158 55.7849 119.569C56.0636 119.808 56.2229 119.927 56.3424 120.087C58.0147 122.118 59.6074 122.516 61.3594 121.321C62.9123 120.246 63.1911 118.414 62.0363 116.263C60.6825 113.794 59.3287 111.324 57.8953 108.935C56.7406 107.023 54.8293 106.425 52.8384 107.461C50.2502 108.815 47.6621 110.289 45.1535 111.802C43.2024 112.957 42.645 114.71 43.4015 116.422C44.1979 118.215 45.711 118.732 48.0204 117.976C48.2593 117.896 48.4982 117.856 48.339 117.896L48.4186 117.856ZM148.64 55.0866C148.123 56.7993 149.118 58.7509 150.83 59.3085C152.463 59.8661 154.494 58.7907 155.051 57.0781C155.648 55.246 154.573 53.2147 152.821 52.6969C151.109 52.219 149.158 53.3342 148.64 55.0468V55.0866ZM141.354 93.3618C139.642 92.9237 137.73 94.0787 137.253 95.7913C136.775 97.6234 137.929 99.6148 139.721 100.013C141.473 100.411 143.305 99.2564 143.743 97.4641C144.181 95.7116 143.026 93.7601 141.354 93.3618Z" fill="#CCC9C9"/>
<path d="M47.2638 8.84624L43.5608 22.0693L45.9498 22.7464C76.2911 31.2298 106.593 39.7531 136.934 48.2366C137.85 48.5154 138.805 48.834 139.642 49.3119C141.075 50.1483 141.473 51.5423 141.035 53.0558C140.597 54.5693 139.522 55.5252 137.89 55.4853C136.974 55.4853 136.098 55.2464 135.222 55.0074C104.841 46.5239 74.4197 38.0006 44.0386 29.4774C43.282 29.2782 42.5653 29.0791 41.7291 28.8401L37.827 42.7402C38.6631 42.9792 39.4595 43.1783 40.2559 43.4173C75.2559 53.2151 110.216 63.0129 145.216 72.8107C145.973 73.0098 146.729 73.209 147.446 73.4878C149.078 74.1649 149.795 75.6385 149.437 77.2715C149.039 78.9841 147.565 80.0595 145.813 79.8603C145.057 79.7807 144.3 79.5019 143.544 79.3027C108.504 69.5049 73.4641 59.6673 38.4242 49.8695L36.075 49.1924L32.2923 62.7739L34.6017 63.4112C64.9828 71.9345 95.3639 80.4578 125.785 88.9412C126.581 89.1802 127.457 89.3793 128.174 89.7776C129.647 90.614 130.244 92.008 129.806 93.6011C129.368 95.1943 128.214 96.1502 126.462 96.0705C125.546 96.0307 124.67 95.8315 123.794 95.5926C93.4527 87.1091 63.1512 78.6256 32.8099 70.1024C32.0534 69.9032 31.3366 69.7041 30.4606 69.4253L26.7177 82.8076L29.067 83.4449C64.067 93.2427 99.0272 103.04 134.027 112.838C134.903 113.077 135.779 113.356 136.576 113.794C138.168 114.67 138.686 116.064 138.168 117.777C137.651 119.41 136.416 120.167 134.744 120.087C133.908 120.087 133.072 119.768 132.275 119.569C97.3549 109.811 62.4345 100.014 27.5141 90.2157L24.9259 89.4988L21.1432 103.08C24.5676 104.036 28.0317 104.992 31.4561 105.988C33.7257 106.665 34.6415 108.059 34.1637 110.01C33.6461 112.121 31.9737 113.077 29.6245 112.44C26.2399 111.524 22.8554 110.568 19.2718 109.572L15.4891 123.154C18.8736 124.11 22.2581 125.026 25.6028 126.021C28.191 126.778 29.1865 128.73 28.2308 130.92C27.5539 132.553 25.8019 133.23 23.5721 132.673C20.8645 131.956 18.1569 131.159 15.4493 130.403C14.852 130.243 14.2149 130.124 13.4982 129.925L7.88385 149.919C8.4413 150.078 9.03857 150.237 9.63584 150.396C13.2991 151.432 16.9623 152.428 20.5858 153.463C22.736 154.101 23.8509 155.933 23.3332 157.765C22.8156 159.597 20.9441 160.553 18.7542 159.955C13.4584 158.521 8.16257 157.048 2.9066 155.495C0.636975 154.857 -0.23902 153.344 0.198977 151.034C0.278613 150.516 0.477703 150.038 0.597157 149.52C14.0158 101.408 27.5141 53.2151 41.0124 5.02271C41.0124 4.94305 41.0124 4.90322 41.0522 4.82356C42.0875 1.19918 43.5209 0.36278 47.1046 1.39832C88.4356 12.9884 129.767 24.5785 171.138 36.1287C174.841 37.1643 175.637 38.5981 174.602 42.3419C163.453 82.0907 152.343 121.879 141.194 161.628C138.805 170.191 136.416 178.754 133.987 187.317C132.952 190.942 131.638 191.699 127.975 190.663C123.117 189.309 118.299 187.955 113.441 186.601C111.012 185.923 109.818 184.131 110.415 182.18C111.012 180.308 112.924 179.431 115.233 180.109C119.334 181.224 123.396 182.379 127.617 183.574L133.231 163.5C130.523 162.743 127.776 161.987 125.028 161.19C124.152 160.951 123.237 160.752 122.4 160.393C120.37 159.517 119.613 157.924 120.25 155.972C120.847 154.18 122.4 153.304 124.471 153.822C127.338 154.539 130.125 155.375 132.992 156.172C133.669 156.371 134.346 156.57 135.142 156.769L138.925 143.188C136.894 142.63 134.824 142.033 132.793 141.475C132.036 141.276 131.28 141.037 130.523 140.838C126.263 139.643 125.148 138.448 125.865 135.979C126.581 133.549 128.094 133.151 132.434 134.385C135.142 135.142 137.85 135.899 140.717 136.696C149.516 105.271 158.316 73.9259 167.116 42.4216C127.258 31.2298 87.3605 20.0779 47.2638 8.84624Z" fill="#CCC9C9"/>
<path d="M82.025 127.256C81.9454 129.685 81.5074 132.194 81.9055 134.544C83.1797 142.271 81.3481 148.962 76.2116 154.857C73.0261 158.521 71.8316 162.822 72.6678 167.602C73.9021 174.851 72.3891 181.343 67.6507 186.958C65.7793 189.189 63.1115 189.03 61.7975 186.72C60.9613 185.246 61.3595 183.812 62.3151 182.697C65.8191 178.634 66.8544 174.054 65.9385 168.837C64.6245 161.468 66.7747 155.056 71.6723 149.48C74.8976 145.816 75.8532 141.594 75.3356 136.775C74.9374 132.991 75.1365 129.167 75.0569 125.344C75.017 125.344 74.4596 125.583 73.8623 125.702C72.2298 126.061 70.8362 125.623 70.0398 124.109C69.2833 122.636 69.2833 120.963 70.7565 120.047C73.8623 118.055 77.0876 116.183 80.4323 114.55C82.0648 113.754 83.7372 114.71 84.8123 116.542C86.0864 118.732 87.3208 120.963 88.5551 123.193C90.0682 125.902 89.909 127.853 88.0375 129.048C86.3652 130.123 84.6132 129.486 82.7815 127.216C82.5426 127.216 82.3037 127.216 82.0648 127.176L82.025 127.256Z" fill="#CCC9C9"/>
<path d="M101.615 132.792C98.9873 133.669 97.1159 133.231 96.3195 131.319C95.4833 129.327 96.3992 127.734 99.2661 126.141C101.376 124.946 103.447 123.751 105.597 122.596C108.106 121.242 109.977 121.72 111.371 124.15C112.844 126.738 114.397 129.367 115.751 132.036C116.667 133.868 116.069 135.7 114.516 136.656C113.003 137.572 111.371 137.213 110.017 135.62C109.778 135.341 109.539 135.023 109.101 134.465C108.145 137.213 107.986 139.762 108.464 142.391C109.539 148.246 108.464 153.662 105.438 158.721C104.96 159.517 104.482 160.274 103.845 160.951C99.6244 165.412 98.3502 170.59 99.3457 176.643C100.421 183.136 98.5892 189.03 94.3684 194.168C92.6563 196.239 90.745 196.598 89.1523 195.243C87.4401 193.81 87.3605 191.898 89.0328 189.906C92.2581 186.043 93.3332 181.702 92.4572 176.763C91.183 169.355 93.0943 162.823 98.0317 157.167C101.337 153.384 102.332 149.082 101.775 144.104C101.376 140.36 101.615 136.536 101.575 132.832L101.615 132.792Z" fill="#CCC9C9"/>
<path d="M48.4188 117.856C48.4188 117.856 48.3391 117.856 48.1002 117.936C45.7908 118.653 44.2777 118.175 43.4813 116.383C42.685 114.63 43.2823 112.917 45.2333 111.762C47.7419 110.249 50.33 108.815 52.9182 107.421C54.8693 106.386 56.8204 106.983 57.9751 108.895C59.4085 111.324 60.7623 113.794 62.1162 116.223C63.2709 118.374 63.032 120.166 61.4393 121.281C59.6873 122.516 58.0945 122.118 56.4222 120.047C56.3027 119.887 56.1435 119.808 55.8647 119.529C54.8693 122.118 54.7896 124.667 55.2675 127.216C56.5815 134.704 54.8295 141.275 49.8124 147.011C46.1491 151.193 45.313 156.052 46.189 161.468C47.2641 168.08 45.5121 174.014 41.2515 179.152C39.5792 181.183 37.8272 181.542 36.1947 180.307C34.4825 178.993 34.2038 177.001 35.8761 175.01C39.181 170.987 40.2561 166.487 39.3801 161.468C38.1457 154.339 39.9375 148.046 44.6759 142.59C48.14 138.607 49.3346 134.066 48.6975 128.809C48.2595 125.185 48.5382 121.481 48.4984 117.816L48.4188 117.856Z" fill="#CCC9C9"/>
<path d="M148.641 55.087C149.158 53.3744 151.109 52.2592 152.821 52.7371C154.573 53.2151 155.648 55.2862 155.051 57.1183C154.494 58.8309 152.503 59.8664 150.83 59.3487C149.118 58.7911 148.123 56.8395 148.641 55.1268V55.087Z" fill="#CCC9C9"/>
<path d="M141.354 93.3618C143.066 93.7999 144.181 95.7117 143.743 97.4641C143.305 99.2564 141.473 100.411 139.721 100.013C137.929 99.6149 136.735 97.6234 137.252 95.7913C137.73 94.0787 139.602 92.9237 141.354 93.3618Z" fill="#CCC9C9"/>
</svg>
