<svg width="191" height="213" viewBox="0 0 191 213" fill="none" xmlns="http://www.w3.org/2000/svg">
<path d="M169.96 25.3127C172.513 25.1057 173.686 23.5873 173.997 21.0682C173.514 18.7562 172.272 17.2033 169.753 17.1343C167.44 17.0653 165.612 19.1358 165.715 21.5513C165.819 23.8634 167.648 25.4853 169.96 25.3127ZM190.94 181.945C191.009 168.693 190.975 155.408 190.94 142.157C190.94 138.257 189.629 137.015 185.661 137.015C179.139 137.015 172.617 137.015 166.095 137.015C160.458 136.992 157.295 139.81 156.605 145.47H153.223C140.697 145.47 128.205 145.47 115.678 145.47C113.642 145.47 111.607 145.332 109.571 145.539C107.12 145.815 105.637 147.333 105.809 149.852C105.947 152.164 107.328 153.579 109.743 153.683C110.709 153.752 111.676 153.683 112.642 153.683C125.996 153.683 139.385 153.683 152.74 153.683H156.674C156.674 159.652 156.674 165.243 156.674 171.075C155.294 171.075 154.12 171.075 152.982 171.075C136.521 171.075 120.026 171.075 103.566 171.075C102.703 171.075 101.841 170.971 101.013 171.109C98.6315 171.523 97.0441 172.972 97.1822 175.457C97.3202 177.769 98.7695 179.115 101.151 179.287C102.117 179.356 103.083 179.322 104.049 179.322C120.199 179.322 136.349 179.322 152.499 179.322H156.639C156.743 180.323 156.881 180.944 156.916 181.565C157.226 186.983 158.02 187.811 163.472 187.88C170.65 187.949 177.793 187.949 184.971 187.88C190.216 187.811 190.975 187.086 190.975 181.876L190.94 181.945ZM182.313 179.425C176.689 179.425 171.202 179.425 165.474 179.425C165.474 168.107 165.474 156.926 165.474 145.401H182.313C182.313 156.754 182.313 168.003 182.313 179.425ZM3.94152 187.88H23.6111V208.447C23.6111 210.483 25.233 212.105 27.2689 212.105H40.1059C42.1419 212.105 43.7638 210.483 43.7638 208.447V198.784H52.9774C55.0134 198.784 56.6353 197.163 56.6353 195.127V126.559C56.6353 124.523 55.0134 122.901 52.9774 122.901H43.7638V109.512C43.7638 107.476 42.1419 105.854 40.1059 105.854H27.2689C25.233 105.854 23.6111 107.476 23.6111 109.512V129.285H3.94152C2.04358 129.285 0.490723 130.838 0.490723 132.736V136.29C0.490723 138.188 2.04358 139.741 3.94152 139.741H23.6111V151.025H3.94152C2.04358 151.025 0.490723 152.578 0.490723 154.476V158.031C0.490723 159.928 2.04358 161.481 3.94152 161.481H23.6111V177.286H3.94152C2.04358 177.39 0.490723 178.942 0.490723 180.875V184.429C0.490723 186.327 2.04358 187.88 3.94152 187.88ZM43.7293 130.217H49.285V191.469H43.7293V130.217ZM30.8923 113.17H36.3791V204.789H30.8923V113.17ZM80.9289 161.723C83.4825 161.481 84.9663 160.136 85.2079 157.685C85.4494 155.511 83.1374 153.165 80.9634 153.406C78.5823 153.648 76.995 154.959 76.995 157.582C76.995 160.205 78.5823 161.378 80.8944 161.757L80.9289 161.723ZM111.503 64.7209C112.366 65.135 113.297 65.3765 114.229 65.6181C127.204 69.0344 140.214 72.4162 153.189 75.7979C157.123 76.7987 161.022 77.8684 164.99 78.6276C167.268 79.0762 169.028 77.9719 169.511 75.5909C169.96 73.3479 169.166 71.588 166.819 70.7943C165.853 70.4492 164.887 70.1041 163.679 69.6555C164.645 68.0681 165.474 66.7223 166.336 65.411C169.35 60.7639 168.625 56.7035 164.162 53.2297C165.853 50.6071 167.613 48.157 169.028 45.5689C170.201 43.3949 171.823 42.4287 174.204 41.9456C186.178 39.4955 193.494 27.3832 190.216 15.616C187.179 4.60792 175.86 -2.05213 164.749 0.570479C153.568 3.2276 146.563 14.4772 149.013 25.8303C149.255 27.0036 149.634 28.5565 149.117 29.4537C147.184 32.8355 144.907 36.0447 142.733 39.392C141.905 38.9434 141.318 38.6673 140.8 38.3567C136.211 35.4581 135.037 35.6996 132.035 40.2892C129.482 44.2231 126.79 48.088 124.409 52.1254C121.993 56.2319 122.408 59.027 113.919 57.0601C111.952 56.0939 109.985 57.8193 109.363 60.0278C108.742 62.1328 109.502 63.8582 111.537 64.7899L111.503 64.7209ZM157.399 31.9037C158.192 30.4544 158.399 28.1424 157.847 26.624C155.087 18.8942 158.503 11.1644 166.026 8.8524C173.134 6.6784 180.899 11.1644 182.382 18.2731C184.039 26.3135 179.035 33.4911 170.719 34.1123C167.233 34.3883 165.335 35.8377 163.714 38.5983C161.712 41.9801 159.435 45.2238 157.054 48.8127C154.534 47.2253 152.188 45.707 149.669 44.0851C152.429 39.8061 155.19 36.0102 157.433 31.9383L157.399 31.9037ZM137.971 46.3626C145.252 51.0902 152.326 55.6798 159.642 60.4419C158.296 62.5814 157.192 64.5138 155.846 66.2737C155.397 66.8604 154.224 67.3435 153.534 67.1709C145.39 65.1695 137.315 63.03 128.584 60.7524C131.863 55.7143 134.83 51.1937 137.971 46.3971V46.3626ZM103.29 79.4903C110.709 81.4573 118.094 83.3897 125.513 85.3221C135.279 87.8757 145.079 90.3948 154.845 92.9829C157.502 93.6731 159.607 92.6033 160.056 90.2223C160.332 88.7729 160.608 86.2884 158.02 85.4602C157.226 85.1841 156.087 84.7355 155.052 84.4594C142.802 81.2502 130.551 78.041 118.301 74.8317C113.573 73.5894 108.811 72.4162 104.36 71.2774C101.703 71.4154 100.115 72.5887 99.8048 74.8662C99.4597 77.3508 100.909 78.8692 103.256 79.4903H103.29ZM85.3804 178.39C97.5272 175.63 104.394 164.415 101.668 152.061C101.427 150.956 101.634 149.473 102.186 148.472C103.946 145.435 105.982 142.571 108.121 139.293C108.915 139.776 109.467 140.086 110.019 140.431C114.402 143.192 116.196 142.743 118.853 138.43C120.613 135.635 122.408 132.874 124.236 130.114C129.482 122.246 128.55 122.487 122.684 118.139C122.615 118.07 122.58 117.967 122.373 117.449C124.823 113.619 127.515 109.65 129.965 105.578C130.931 103.956 132.001 103.68 133.657 104.164C137.557 105.233 141.456 106.303 145.424 107.269C148.22 107.925 150.497 106.648 150.911 104.267C151.36 101.437 150.014 99.85 147.322 99.1599C130.413 94.7773 113.504 90.3603 96.5955 85.9778C93.5243 85.1841 91.2468 86.2884 90.6947 88.7039C90.108 91.292 91.4193 93.121 94.4905 93.9492C97.9413 94.8809 101.427 95.8126 105.395 96.8823C103.739 99.4014 102.289 101.575 100.806 103.853C100.012 103.439 99.4252 103.163 98.9076 102.852C94.318 100.057 93.0067 100.299 90.108 104.75C87.6925 108.408 85.3459 112.1 82.9304 115.758C80.4458 119.589 80.7909 121.21 84.7248 123.833C85.4149 124.282 85.9671 124.903 86.6917 125.524C84.8628 128.492 83.2754 131.39 81.3085 134.047C80.4803 135.186 78.9964 136.187 77.6506 136.498C65.6764 139.086 57.8775 150.025 60.1896 161.24C62.6742 173.214 74.0618 180.944 85.4149 178.356L85.3804 178.39ZM113.539 99.781C113.781 99.4359 114.85 99.4014 115.437 99.5395C117.714 100.023 119.957 100.644 122.822 101.403C120.164 105.613 117.749 109.409 115.161 113.446C112.711 111.928 110.399 110.478 107.604 108.753C109.605 105.682 111.468 102.714 113.504 99.8155L113.539 99.781ZM92.213 116.517C93.1792 114.654 94.5941 113.032 96.0434 110.962C103.221 115.62 110.295 120.21 117.714 125.006C115.989 127.663 114.505 129.941 112.883 132.426C106.051 127.974 99.3562 123.695 92.7651 119.244C92.213 118.864 91.8679 117.208 92.213 116.552V116.517ZM68.7131 153.993C70.3004 148.368 74.89 144.676 80.9979 144.641C83.8276 144.641 85.2769 143.089 86.5882 141.087C88.8657 137.602 91.1088 134.116 93.3863 130.631C93.4898 130.459 93.7314 130.39 94.18 130.114C96.4575 131.632 98.666 133.081 101.185 134.738C98.735 138.464 96.5265 142.053 94.0764 145.504C92.4201 147.851 91.8679 149.956 93.0757 152.889C95.3532 158.41 93.5243 164.242 88.9347 167.831C84.7248 171.109 78.4443 171.316 73.9238 168.279C69.1617 165.07 67.1257 159.549 68.6786 153.993H68.7131Z" fill="#CCC9C9"/>
</svg>
