<svg width="98" height="95" viewBox="0 0 98 95" fill="none" xmlns="http://www.w3.org/2000/svg">
<path d="M27.3098 42.9051C27.3098 42.9051 27.3498 42.9551 27.3798 42.9751L37.2198 52.8151L40.6498 49.3851L36.9498 45.6851L35.2798 44.0051L43.8598 35.4251L44.9898 35.5551C45.2799 35.5851 45.5698 35.6051 45.8698 35.6051C46.4598 35.6051 47.0398 35.5351 47.6098 35.4051L41.2898 29.0851C41.1598 28.9551 41.0198 28.8451 40.8898 28.7251C42.8398 21.7251 41.0598 13.9051 35.5598 8.40512C30.0798 2.93512 22.3298 1.15512 15.3698 3.02512L27.1598 14.8151L24.0598 26.3651L12.5098 29.4651L0.719847 17.6751C-1.16015 24.6351 0.629848 32.3851 6.08985 37.8451C11.8298 43.5851 20.0798 45.2651 27.2998 42.9051H27.3098ZM62.1598 49.9651C61.9698 50.8151 61.9198 51.6951 62.0198 52.5851L62.1498 53.7151L61.3398 54.5251L55.2398 60.6251L53.5598 62.2951L48.1798 56.9151L44.7498 60.3451L75.8798 91.4751C77.7998 93.3951 80.3099 94.3551 82.8298 94.3551C85.3498 94.3551 87.8598 93.3951 89.7798 91.4751C93.6198 87.6351 93.6198 81.4151 89.7798 77.5751L62.1598 49.9551V49.9651ZM86.1998 88.2651L81.2598 89.5851L77.2498 85.5751L78.5698 80.6351L83.5098 79.3151L87.5198 83.3251L86.1998 88.2651ZM48.2098 53.6151L53.5898 58.9951L59.6898 52.8951C59.3598 49.9151 60.3298 46.8251 62.6098 44.5451C64.8898 42.2651 67.9798 41.2951 70.9598 41.6251L97.6398 14.9451L82.6998 -0.00488281L56.0198 26.6751C56.3498 29.6551 55.3798 32.7451 53.0998 35.0251C50.8198 37.3051 47.7298 38.2751 44.7498 37.9451L38.6498 44.0451L44.0298 49.4251L17.6698 75.7851L16.7098 74.8251L11.6498 78.9051L3.13985 92.3451L5.30985 94.5151L18.7498 86.0051L22.8198 80.9451L21.8498 79.9751L48.2098 53.6151Z" fill="#0369AE"/>
</svg>
