<svg width="81" height="104" viewBox="0 0 81 104" fill="none" xmlns="http://www.w3.org/2000/svg">
<path d="M49.3999 16.0551H60.0799C62.4399 16.0551 64.3599 17.9751 64.3599 20.3351V57.0851C66.6899 57.5351 68.8999 58.3151 70.9599 59.3551V20.3251C70.9599 14.3251 66.0799 9.45508 60.0899 9.45508H49.4099C47.5899 9.45508 46.1099 10.9351 46.1099 12.7551C46.1099 14.5751 47.5899 16.0551 49.4099 16.0551H49.3999Z" fill="#0369AE"/>
<path d="M36.16 90.8053H10.87C8.51 90.8053 6.59 88.8853 6.59 86.5253V20.3253C6.59 17.9653 8.51 16.0453 10.87 16.0453H22.43C24.25 16.0453 25.73 14.5653 25.73 12.7453C25.73 10.9253 24.25 9.44531 22.43 9.44531H10.87C4.88 9.45531 0 14.3353 0 20.3253V86.5253C0 92.5253 4.88 97.3953 10.87 97.3953H39.95C38.37 95.4253 37.09 93.2053 36.16 90.7953V90.8053Z" fill="#0369AE"/>
<path d="M41.3599 25.8151H29.5899C24.5399 25.8151 20.4399 21.7051 20.4399 16.6651V9.15512C20.4399 4.10512 24.5399 -0.00488281 29.5899 -0.00488281H41.3599C46.4099 -0.00488281 50.5099 4.10512 50.5099 9.14512V16.6551C50.5099 21.7051 46.3999 25.8051 41.3599 25.8051V25.8151ZM29.5899 6.59512C28.1799 6.59512 27.0299 7.74512 27.0299 9.15512V16.6651C27.0299 18.0751 28.1799 19.2251 29.5899 19.2251H41.3599C42.7699 19.2251 43.9199 18.0751 43.9199 16.6651V9.15512C43.9199 7.74512 42.7699 6.59512 41.3599 6.59512H29.5899Z" fill="#0369AE"/>
<path d="M59.56 60.4551C47.72 60.4551 38.28 70.0751 38.28 81.7351C38.28 93.3951 47.9 103.015 59.56 103.015C71.22 103.015 80.84 93.3951 80.84 81.7351C80.84 70.0751 71.31 60.4551 59.56 60.4551ZM59.56 100.345C49.3 100.345 40.95 91.9951 40.95 81.7351C40.95 71.4751 49.3 63.1251 59.56 63.1251C69.82 63.1251 78.17 71.4751 78.17 81.7351C78.17 91.9951 69.82 100.345 59.56 100.345Z" fill="#0369AE"/>
<path d="M59.5599 65.0752C50.3699 65.0752 42.8999 72.5452 42.8999 81.7352C42.8999 90.9252 50.3699 98.3952 59.5599 98.3952C68.7499 98.3952 76.2199 90.9252 76.2199 81.7352C76.2199 72.5452 68.7499 65.0752 59.5599 65.0752ZM57.9199 90.7952C57.2399 91.4652 56.1499 91.4552 55.4799 90.7752L48.4699 83.6252C48.1599 83.3052 48.1599 82.7952 48.4699 82.4752L50.7599 80.1852C51.0799 79.8652 51.5999 79.8652 51.9199 80.1852L56.1399 84.4652C56.4599 84.7852 56.9699 84.7852 57.2899 84.4752L68.0899 73.9552C68.4099 73.6452 68.9199 73.6452 69.2399 73.9552L71.5299 76.2452C71.8499 76.5652 71.8499 77.0852 71.5299 77.4052L57.9299 90.7852L57.9199 90.7952Z" fill="#0369AE"/>
<path d="M51.0999 41.4953H19.85C17.56 41.4953 15.7 39.6353 15.7 37.3453C15.7 35.0553 17.56 33.1953 19.85 33.1953H51.11C53.4 33.1953 55.2599 35.0553 55.2599 37.3453C55.2599 39.6353 53.4 41.4953 51.11 41.4953H51.0999Z" fill="#0369AE"/>
<path d="M51.0999 55.9748H19.85C17.56 55.9748 15.7 54.1148 15.7 51.8248C15.7 49.5348 17.56 47.6748 19.85 47.6748H51.11C53.4 47.6748 55.2599 49.5348 55.2599 51.8248C55.2599 54.1148 53.4 55.9748 51.11 55.9748H51.0999Z" fill="#0369AE"/>
</svg>
