<svg width="19" height="24" viewBox="0 0 19 24" fill="none" xmlns="http://www.w3.org/2000/svg">
<path d="M9.752 18.128C8.89867 18.128 8.10933 17.9893 7.384 17.712C6.66933 17.424 6.04533 17.024 5.512 16.512C4.98933 15.9893 4.57867 15.3813 4.28 14.688C3.98133 13.9947 3.832 13.232 3.832 12.4C3.832 11.568 3.98133 10.8053 4.28 10.112C4.57867 9.41867 4.99467 8.816 5.528 8.304C6.06133 7.78133 6.68533 7.38133 7.4 7.104C8.12533 6.816 8.91467 6.672 9.768 6.672C10.632 6.672 11.4267 6.82133 12.152 7.12C12.888 7.408 13.512 7.84 14.024 8.416L12.984 9.424C12.5573 8.976 12.0773 8.64533 11.544 8.432C11.0107 8.208 10.44 8.096 9.832 8.096C9.20267 8.096 8.616 8.20267 8.072 8.416C7.53867 8.62933 7.07467 8.928 6.68 9.312C6.28533 9.696 5.976 10.1547 5.752 10.688C5.53867 11.2107 5.432 11.7813 5.432 12.4C5.432 13.0187 5.53867 13.5947 5.752 14.128C5.976 14.6507 6.28533 15.104 6.68 15.488C7.07467 15.872 7.53867 16.1707 8.072 16.384C8.616 16.5973 9.20267 16.704 9.832 16.704C10.44 16.704 11.0107 16.5973 11.544 16.384C12.0773 16.16 12.5573 15.8187 12.984 15.36L14.024 16.368C13.512 16.944 12.888 17.3813 12.152 17.68C11.4267 17.9787 10.6267 18.128 9.752 18.128Z" fill="black"/>
<circle cx="9.5" cy="12.5" r="9" stroke="black"/>
</svg>
