<svg width="22" height="17" viewBox="0 0 22 17" fill="none" xmlns="http://www.w3.org/2000/svg">
<path d="M1.9462 5.66359C1.7902 5.81022 1.63759 5.9411 1.49976 6.08604C1.10637 6.49953 0.909431 7.00705 0.790253 7.55747C0.634253 8.27925 0.576841 9.00637 0.580959 9.7439C0.590406 11.4958 0.583866 13.2474 0.583866 14.9992C0.583866 15.2593 0.583868 15.5191 0.582899 15.7792C0.581203 16.1667 0.879395 16.4721 1.26649 16.4728C1.98375 16.4743 2.70101 16.4728 3.41802 16.4738C3.49845 16.4738 3.57863 16.4813 3.65905 16.4874C3.80536 16.4985 3.93859 16.4665 4.05632 16.3757C4.28281 16.2007 4.43832 16.0029 4.40659 15.6839C4.37825 15.4004 4.40077 15.1119 4.40077 14.8145H17.7671C17.7671 14.8766 17.7671 14.9394 17.7671 15.0019C17.7671 15.2481 17.7661 15.4944 17.7678 15.7406C17.7705 16.1478 18.0801 16.461 18.4873 16.4627C19.1328 16.4656 19.7781 16.4639 20.4237 16.4644C20.6504 16.4644 20.8806 16.4869 21.1027 16.4549C21.2165 16.4384 21.3314 16.3395 21.419 16.2513C21.5707 16.0989 21.6237 15.9013 21.6116 15.6849C21.5985 15.4517 21.5859 15.2181 21.5857 14.9847C21.5835 13.1805 21.5937 11.376 21.5794 9.57182C21.5741 8.90724 21.5365 8.23975 21.3689 7.59092C21.1831 6.87084 20.835 6.23704 20.3203 5.69752C20.3011 5.6774 20.2825 5.6568 20.2546 5.62675C20.4932 5.54095 20.7209 5.45394 20.9518 5.37711C21.2575 5.27555 21.4631 5.07754 21.5559 4.769C21.6639 4.40883 21.5288 4.06224 21.1981 3.84872C20.9738 3.70402 20.7325 3.61846 20.4583 3.62646C20.0272 3.63882 19.5955 3.63688 19.1641 3.64537C19.0529 3.64755 18.9909 3.61749 18.9422 3.50237C18.6951 2.91825 18.4093 2.35668 17.987 1.87194C17.4432 1.24759 16.7655 0.882338 15.9489 0.77618C15.1781 0.675838 14.408 0.558531 13.6336 0.499877C12.9587 0.448737 12.279 0.46134 11.6015 0.460855C10.7747 0.460128 9.94676 0.45116 9.12146 0.490425C8.35745 0.52678 7.59538 0.614518 6.83403 0.694258C6.49854 0.729402 6.16013 0.774968 5.83457 0.860767C5.12821 1.04691 4.57761 1.4839 4.10113 2.021C3.6932 2.48102 3.38024 3.00042 3.16392 3.57653C3.13848 3.64391 3.10627 3.66597 3.03287 3.66427C2.54501 3.65312 2.0569 3.65046 1.56904 3.63955C1.09668 3.62889 0.634495 3.99268 0.575874 4.42847C0.512167 4.9023 0.836277 5.34875 1.32099 5.47066C1.53077 5.5235 1.73497 5.59766 1.94596 5.66359H1.9462ZM18.4831 5.43528C13.5168 4.99004 8.57474 4.99149 3.62247 5.42073C3.63943 5.37905 3.6513 5.34536 3.66632 5.31336C4.02022 4.54965 4.37437 3.78594 4.729 3.02247C4.91553 2.62111 5.22147 2.33584 5.61777 2.1543C6.01309 1.97325 6.43919 1.8826 6.8677 1.84625C7.73103 1.77305 8.5963 1.70034 9.4618 1.68095C11.1705 1.64266 12.8805 1.61842 14.5887 1.72312C15.0984 1.75439 15.5952 1.83752 16.0782 2.00839C16.7841 2.25779 17.3253 2.68606 17.6281 3.38748C17.8083 3.80533 17.9979 4.21906 18.175 4.63812C18.2828 4.89285 18.3749 5.15413 18.4831 5.43576V5.43528ZM10.7546 11.1804C10.206 11.1567 9.67764 11.1443 9.15102 11.108C8.69343 11.0765 8.23658 11.0258 7.78141 10.9684C7.36017 10.9153 7.07021 10.7083 6.9755 10.2609C6.89895 9.8995 6.76984 9.54904 6.69402 9.18766C6.63031 8.88397 6.81029 8.60524 7.09952 8.53544C7.35314 8.47436 7.61282 8.43001 7.87225 8.4048C8.21308 8.37184 8.55633 8.36409 8.89861 8.34712C9.79173 8.30252 10.6839 8.24363 11.5799 8.26229C12.6048 8.28338 13.6263 8.33791 14.6447 8.45497C14.8828 8.48236 15.1168 8.50611 15.2931 8.69928C15.4235 8.84204 15.5005 8.99425 15.4455 9.19275C15.3363 9.5883 15.219 9.98191 15.1258 10.3811C15.0647 10.6429 14.9123 10.7892 14.6687 10.8767C14.3717 10.9831 14.0655 11.0117 13.7549 11.0273C12.7482 11.0774 11.7415 11.13 10.7541 11.1804H10.7546ZM16.4079 10.5701C16.4099 10.5415 16.4084 10.5251 16.4125 10.5103C16.576 9.93295 16.7376 9.3549 16.9067 8.77927C16.9282 8.70583 16.9791 8.63457 17.0331 8.57858C17.2148 8.3905 17.4381 8.27586 17.6971 8.23442C17.7884 8.21987 17.8817 8.21333 17.9715 8.19249C18.6382 8.03785 19.3046 7.88249 19.9697 7.72204C20.049 7.7029 20.0814 7.71671 20.1161 7.79039C20.3176 8.21915 20.4087 8.66778 20.3748 9.14113C20.351 9.47196 20.2527 9.76838 19.9676 9.96785C19.641 10.1964 19.2765 10.3295 18.8794 10.3653C18.3414 10.4141 17.8032 10.4584 17.2647 10.5033C16.9808 10.527 16.6967 10.5478 16.4077 10.5704L16.4079 10.5701ZM5.78491 10.5692C5.75366 10.5711 5.74203 10.5735 5.73089 10.5726C4.97221 10.5103 4.21401 10.4458 3.45509 10.3862C3.1099 10.359 2.78094 10.2791 2.4687 10.1268C2.1521 9.97246 1.91544 9.7502 1.84373 9.39246C1.78293 9.08902 1.78608 8.78193 1.84228 8.47848C1.89218 8.20872 1.97793 7.94963 2.11843 7.70484C2.65183 7.83038 3.17942 7.9569 3.70822 8.07784C4.02555 8.15056 4.35039 8.19515 4.66142 8.2875C4.99401 8.38638 5.26386 8.57495 5.32975 8.9562C5.34477 9.04297 5.37601 9.12683 5.40024 9.21214C5.52741 9.66053 5.65459 10.1089 5.78491 10.5689V10.5692ZM11.1 13.6555V13.6575C10.205 13.6575 9.30992 13.6572 8.41486 13.6575C8.14986 13.6575 8.00645 13.5152 8.00524 13.2469C8.00451 13.0896 8.01372 12.9316 8.0033 12.775C7.98417 12.4904 8.15664 12.3322 8.44635 12.3329C10.188 12.3365 11.9299 12.3351 13.6716 12.3356C13.7201 12.3356 13.7688 12.3336 13.8167 12.3382C14.02 12.3579 14.1534 12.5045 14.1549 12.7091C14.1561 12.8826 14.1554 13.0559 14.1549 13.2294C14.1544 13.5203 14.0187 13.6553 13.7249 13.6555C12.85 13.656 11.975 13.6555 11.1 13.6555Z" fill="#0369AE"/>
</svg>
