<svg width="161" height="103" viewBox="0 0 161 103" fill="none" xmlns="http://www.w3.org/2000/svg">
<path d="M41.8222 22.2549H50.9066V66.7452H42.5634V34.1133L25.4533 54.2092L8.27974 34.1133V66.7452H0V22.2549H9.02089L25.4533 41.546L41.8222 22.2549Z" fill="#231F20"/>
<path d="M106.07 22.2549V30.4076H72.9087V40.4237H99.6114V48.5764H72.9087V66.7452H64.5654V22.2549H106.07Z" fill="#231F20"/>
<path d="M158.924 22.2549V30.4076H140.565V66.7452H132.222V30.4076H113.799V22.2549H158.946H158.924Z" fill="#231F20"/>
<path d="M9.9946 77.7363H11.9216V87.2019H10.1428V80.2562L6.5006 84.5338L2.83718 80.2562V87.2019H1.07959V77.7363H3.00659L6.5006 81.8444L9.97343 77.7363H9.9946Z" fill="#231F20"/>
<path d="M22.5938 77.7363H24.3726V85.3808C24.3726 85.6349 24.3303 85.8678 24.2244 86.1008C24.1185 86.3337 23.9914 86.5243 23.822 86.6725C23.6526 86.8419 23.462 86.969 23.2291 87.0537C22.9962 87.1596 22.7632 87.2019 22.5091 87.2019H16.6223C16.3682 87.2019 16.114 87.1596 15.9023 87.0537C15.6693 86.9478 15.4788 86.8207 15.3094 86.6725C15.14 86.5031 15.0129 86.3125 14.907 86.1008C14.8011 85.8678 14.7588 85.6349 14.7588 85.3808V77.7363H16.5164V85.3808C16.5164 85.3808 16.5376 85.4655 16.6011 85.4655H22.488C22.488 85.4655 22.5727 85.4443 22.5727 85.3808V77.7363H22.5938Z" fill="#231F20"/>
<path d="M27.1899 77.7363H28.9475V85.4867H36.7826V87.2231H27.1899V77.7363Z" fill="#231F20"/>
<path d="M48.0277 77.7363V79.4727H44.1314V87.2019H42.3526V79.4727H38.4351V77.7363H48.0277Z" fill="#231F20"/>
<path d="M50.3569 77.7363H52.1145V87.2019H50.3569V77.7363Z" fill="#231F20"/>
<path d="M68.9065 77.7363V79.4727H61.8549V81.6115H67.5301V83.3479H61.8549V87.2231H60.0762V77.7575H68.9065V77.7363Z" fill="#231F20"/>
<path d="M71.0444 77.7363H72.802V87.2019H71.0444V77.7363Z" fill="#231F20"/>
<path d="M75.3232 77.7363H77.0808V85.4867H84.9159V87.2231H75.3232V77.7363Z" fill="#231F20"/>
<path d="M96.1385 77.7363V79.4727H92.2422V87.2019H90.4634V79.4727H86.5459V77.7363H96.1385Z" fill="#231F20"/>
<path d="M108.06 82.1396C108.06 82.3937 108.018 82.6266 107.912 82.8595C107.806 83.0713 107.679 83.2619 107.51 83.4313C107.34 83.6007 107.15 83.7277 106.917 83.8336C106.684 83.9395 106.451 83.9819 106.197 83.9819H105.667L108.06 86.7771V87.2218H106.133L103.359 83.9819H100.246H100.204V87.2218H98.4463V77.7773H106.175C106.43 77.7773 106.684 77.8197 106.895 77.9256C107.128 78.0315 107.319 78.1585 107.488 78.3279C107.658 78.4973 107.785 78.6879 107.891 78.9208C107.997 79.1538 108.039 79.3867 108.039 79.6196V82.1607L108.06 82.1396ZM106.197 82.2243C106.197 82.2243 106.281 82.2031 106.281 82.1396V79.5985C106.281 79.5985 106.26 79.5138 106.197 79.5138H100.31C100.31 79.5138 100.204 79.5349 100.204 79.5985V82.1396C100.204 82.1396 100.246 82.2243 100.31 82.2243H106.197Z" fill="#231F20"/>
<path d="M118.564 77.7363C118.818 77.7363 119.072 77.7787 119.284 77.8846C119.496 77.9904 119.707 78.1175 119.877 78.2657C120.046 78.414 120.173 78.6257 120.279 78.8375C120.385 79.0704 120.427 79.3033 120.427 79.5574V87.2019H118.649V84.0255H112.571V87.2019H110.813V79.5574C110.813 79.3033 110.856 79.0704 110.962 78.8375C111.068 78.6045 111.195 78.414 111.364 78.2657C111.533 78.1175 111.724 77.9693 111.957 77.8846C112.19 77.7999 112.423 77.7363 112.677 77.7363H118.564ZM118.649 82.2891V79.5786C118.649 79.5786 118.627 79.4939 118.564 79.4939H112.677C112.677 79.4939 112.592 79.5151 112.592 79.5786V82.2891H118.67H118.649Z" fill="#231F20"/>
<path d="M132.412 77.7363V79.4727H128.516V87.2019H126.737V79.4727H122.819V77.7363H132.412Z" fill="#231F20"/>
<path d="M134.762 77.7559H136.519V87.2214H134.762V77.7559Z" fill="#231F20"/>
<path d="M146.727 77.7559C146.981 77.7559 147.214 77.7982 147.447 77.9041C147.68 78.01 147.87 78.137 148.04 78.2853C148.209 78.4547 148.336 78.6452 148.442 78.857C148.548 79.0899 148.59 79.3229 148.59 79.577V85.3791C148.59 85.6333 148.548 85.8662 148.442 86.0991C148.336 86.3321 148.209 86.5226 148.04 86.6709C147.87 86.8403 147.68 86.9673 147.447 87.052C147.214 87.1579 146.981 87.2003 146.727 87.2003H140.84C140.586 87.2003 140.332 87.1579 140.12 87.052C139.887 86.9462 139.697 86.8191 139.527 86.6709C139.358 86.5015 139.231 86.3109 139.125 86.0991C139.019 85.8662 138.977 85.6333 138.977 85.3791V79.577C138.977 79.3229 139.019 79.0899 139.125 78.857C139.231 78.6241 139.358 78.4335 139.527 78.2853C139.697 78.1158 139.887 77.9888 140.12 77.9041C140.353 77.8194 140.586 77.7559 140.84 77.7559H146.727ZM146.727 85.485C146.727 85.485 146.812 85.4639 146.812 85.4003V79.5982C146.812 79.5982 146.79 79.5135 146.727 79.5135H140.84C140.84 79.5135 140.755 79.5346 140.755 79.5982V85.4003C140.755 85.4003 140.777 85.485 140.84 85.485H146.727Z" fill="#231F20"/>
<path d="M159.221 77.7559H161V87.2214H159.073L153.144 80.2758V87.2214H151.386V77.7559H153.313L159.221 84.7015V77.7559Z" fill="#231F20"/>
<path d="M10.2069 93.5117V95.2481H6.31055V102.977H4.53178V95.2481H0.614258V93.5117H10.2069Z" fill="#231F20"/>
<path d="M21.4094 95.2494H14.3579V97.3882H20.033V99.1246H14.3579V101.263H21.4094V103H12.5791V93.5342H21.4094V95.2706V95.2494Z" fill="#231F20"/>
<path d="M25.9406 95.2481C25.9406 95.2481 25.8559 95.2693 25.8559 95.3328V101.135C25.8559 101.135 25.8771 101.22 25.9406 101.22H33.6698V102.956H25.9406C25.6865 102.956 25.4324 102.914 25.2206 102.808C24.9877 102.702 24.7971 102.575 24.6277 102.427C24.4583 102.257 24.3313 102.067 24.2254 101.855C24.1195 101.622 24.0771 101.389 24.0771 101.135V95.3328C24.0771 95.0787 24.1195 94.8458 24.2254 94.6129C24.3313 94.3799 24.4583 94.1893 24.6277 94.0411C24.7971 93.8929 24.9877 93.7447 25.2206 93.6599C25.4536 93.5541 25.6865 93.5117 25.9406 93.5117H33.6698V95.2481H25.9406Z" fill="#231F20"/>
<path d="M46.2272 93.5117V102.977H44.4697V99.1021H38.1804V102.977H36.4229V93.5117H38.1804V97.3869H44.4697V93.5117H46.2272Z" fill="#231F20"/>
<path d="M56.8995 93.5117H58.6783V102.977H56.7513L50.822 96.0316V102.977H49.0645V93.5117H50.9915L56.8995 100.457V93.5117Z" fill="#231F20"/>
<path d="M69.2245 93.5117C69.4786 93.5117 69.7115 93.5541 69.9444 93.6599C70.1774 93.7658 70.368 93.8929 70.5374 94.0411C70.7068 94.2105 70.8338 94.4011 70.9397 94.6129C71.0456 94.8458 71.0879 95.0787 71.0879 95.3328V101.135C71.0879 101.389 71.0456 101.622 70.9397 101.855C70.8338 102.088 70.7068 102.279 70.5374 102.427C70.368 102.596 70.1774 102.723 69.9444 102.808C69.7115 102.914 69.4786 102.956 69.2245 102.956H63.3376C63.0835 102.956 62.8294 102.914 62.6176 102.808C62.3847 102.702 62.1941 102.575 62.0247 102.427C61.8553 102.257 61.7282 102.067 61.6224 101.855C61.5165 101.622 61.4741 101.389 61.4741 101.135V95.3328C61.4741 95.0787 61.5165 94.8458 61.6224 94.6129C61.7282 94.3799 61.8553 94.1893 62.0247 94.0411C62.1941 93.8717 62.3847 93.7447 62.6176 93.6599C62.8505 93.5752 63.0835 93.5117 63.3376 93.5117H69.2245ZM69.2245 101.241C69.2245 101.241 69.3092 101.22 69.3092 101.156V95.354C69.3092 95.354 69.288 95.2693 69.2245 95.2693H63.3376C63.3376 95.2693 63.2529 95.2905 63.2529 95.354V101.156C63.2529 101.156 63.2741 101.241 63.3376 101.241H69.2245Z" fill="#231F20"/>
<path d="M73.8818 93.5117H75.6394V101.262H83.4745V102.998H73.8818V93.5117Z" fill="#231F20"/>
<path d="M93.3226 93.5117C93.5767 93.5117 93.8097 93.5541 94.0426 93.6599C94.2755 93.7658 94.4661 93.8929 94.6355 94.0411C94.8049 94.2105 94.932 94.4011 95.0379 94.6129C95.1437 94.8458 95.1861 95.0787 95.1861 95.3328V101.135C95.1861 101.389 95.1437 101.622 95.0379 101.855C94.932 102.088 94.8049 102.279 94.6355 102.427C94.4661 102.596 94.2755 102.723 94.0426 102.808C93.8097 102.914 93.5767 102.956 93.3226 102.956H87.4357C87.1816 102.956 86.9275 102.914 86.7158 102.808C86.4828 102.702 86.2922 102.575 86.1228 102.427C85.9534 102.257 85.8264 102.067 85.7205 101.855C85.6146 101.622 85.5723 101.389 85.5723 101.135V95.3328C85.5723 95.0787 85.6146 94.8458 85.7205 94.6129C85.8264 94.3799 85.9534 94.1893 86.1228 94.0411C86.2922 93.8717 86.4828 93.7447 86.7158 93.6599C86.9487 93.5752 87.1816 93.5117 87.4357 93.5117H93.3226ZM93.3226 101.241C93.3226 101.241 93.4073 101.22 93.4073 101.156V95.354C93.4073 95.354 93.3861 95.2693 93.3226 95.2693H87.4357C87.4357 95.2693 87.351 95.2905 87.351 95.354V101.156C87.351 101.156 87.3722 101.241 87.4357 101.241H93.3226Z" fill="#231F20"/>
<path d="M107.573 96.0965H105.794V95.3553C105.794 95.2918 105.752 95.2706 105.688 95.2706H99.8015C99.8015 95.2706 99.7168 95.2918 99.7168 95.3553V101.157C99.7168 101.157 99.7379 101.242 99.8015 101.242H105.688C105.688 101.242 105.794 101.221 105.794 101.157V99.3787H103.613V97.6423H107.552V101.157C107.552 101.412 107.509 101.645 107.404 101.877C107.298 102.11 107.171 102.301 107.001 102.449C106.832 102.619 106.641 102.746 106.408 102.83C106.175 102.936 105.942 102.979 105.688 102.979H99.8015C99.5474 102.979 99.2932 102.936 99.0815 102.83C98.8485 102.724 98.658 102.597 98.4886 102.449C98.3191 102.28 98.1921 102.089 98.0862 101.877C97.9803 101.645 97.938 101.412 97.938 101.157V95.3553C97.938 95.1012 97.9803 94.8683 98.0862 94.6353C98.1921 94.4024 98.3191 94.2118 98.4886 94.0636C98.658 93.9153 98.8485 93.7671 99.0815 93.6824C99.3144 93.5977 99.5474 93.5342 99.8015 93.5342H105.688C105.942 93.5342 106.197 93.5765 106.408 93.6824C106.641 93.7883 106.832 93.9153 107.001 94.0636C107.171 94.233 107.298 94.4236 107.404 94.6353C107.509 94.8683 107.552 95.1012 107.552 95.3553V96.0965H107.573Z" fill="#231F20"/>
<path d="M120.49 93.5117L116.043 99.441V102.977H114.286V99.441C113.947 98.9751 113.587 98.488 113.206 97.9798C112.824 97.4716 112.443 96.9846 112.062 96.4763C111.681 95.9681 111.3 95.4811 110.94 94.9729C110.58 94.4646 110.199 93.9776 109.86 93.5117H111.956L115.175 97.5351L118.394 93.5117H120.511H120.49Z" fill="#231F20"/>
<path d="M12.2432 19.0363C13.1273 18.2887 13.2379 16.9659 12.4903 16.0818C11.7426 15.1978 10.4199 15.0871 9.53581 15.8348C8.65174 16.5824 8.54113 17.9052 9.28876 18.7892C10.0364 19.6733 11.3591 19.7839 12.2432 19.0363Z" fill="#231F20"/>
<path d="M19.4165 26.215C20.3006 25.4674 20.4112 24.1446 19.6636 23.2605C18.916 22.3765 17.5932 22.2659 16.7092 23.0135C15.8251 23.7611 15.7145 25.0839 16.4621 25.9679C17.2097 26.852 18.5325 26.9626 19.4165 26.215Z" fill="#231F20"/>
<path d="M26.5904 33.3918C27.4744 32.6441 27.5851 31.3214 26.8374 30.4373C26.0898 29.5532 24.7671 29.4426 23.883 30.1902C22.9989 30.9379 22.8883 32.2606 23.6359 33.1447C24.3836 34.0288 25.7063 34.1394 26.5904 33.3918Z" fill="#231F20"/>
<path d="M19.4209 11.8634C20.305 11.1158 20.4156 9.79305 19.668 8.90898C18.9204 8.02491 17.5976 7.9143 16.7135 8.66193C15.8295 9.40955 15.7189 10.7323 16.4665 11.6164C17.2141 12.5004 18.5369 12.6111 19.4209 11.8634Z" fill="#231F20"/>
<path d="M26.5943 19.0402C27.4784 18.2926 27.589 16.9698 26.8413 16.0857C26.0937 15.2017 24.771 15.0911 23.8869 15.8387C23.0028 16.5863 22.8922 17.9091 23.6398 18.7931C24.3875 19.6772 25.7102 19.7878 26.5943 19.0402Z" fill="#231F20"/>
<path d="M33.7662 26.2189C34.6502 25.4713 34.7608 24.1485 34.0132 23.2644C33.2656 22.3804 31.9428 22.2698 31.0588 23.0174C30.1747 23.765 30.0641 25.0878 30.8117 25.9718C31.5593 26.8559 32.8821 26.9665 33.7662 26.2189Z" fill="#231F20"/>
<path d="M26.5987 4.68863C27.4828 3.941 27.5934 2.61825 26.8457 1.73418C26.0981 0.850104 24.7754 0.739494 23.8913 1.48712C23.0072 2.23475 22.8966 3.5575 23.6442 4.44157C24.3919 5.32565 25.7146 5.43626 26.5987 4.68863Z" fill="#231F20"/>
<path d="M33.772 11.8673C34.6561 11.1197 34.7667 9.79696 34.0191 8.91289C33.2714 8.02882 31.9487 7.9182 31.0646 8.66583C30.1805 9.41346 30.0699 10.7362 30.8176 11.6203C31.5652 12.5044 32.8879 12.615 33.772 11.8673Z" fill="#231F20"/>
<path d="M40.9439 19.046C41.828 18.2984 41.9386 16.9757 41.1909 16.0916C40.4433 15.2075 39.1206 15.0969 38.2365 15.8445C37.3524 16.5922 37.2418 17.9149 37.9894 18.799C38.7371 19.6831 40.0598 19.7937 40.9439 19.046Z" fill="#231F20"/>
</svg>
