<svg width="143" height="95" viewBox="0 0 143 95" fill="none" xmlns="http://www.w3.org/2000/svg">
<path d="M92.8333 11.0511H85.3514V8.00069C85.3514 7.73274 85.2483 7.60908 85.0216 7.60908H60.1439C59.8759 7.60908 59.7523 7.73274 59.7523 8.00069V16.2039C59.7523 16.4719 59.8759 16.5956 60.1439 16.5956H85.0216C86.0728 16.5956 87.0827 16.8017 88.0308 17.2139C88.979 17.6261 89.824 18.162 90.5248 18.8422C91.2462 19.5224 91.8027 20.3468 92.2149 21.2949C92.6272 22.243 92.8333 23.253 92.8333 24.3248V32.528C92.8333 33.5998 92.6272 34.6098 92.2149 35.5579C91.8027 36.506 91.2462 37.3098 90.5248 38.0106C89.8034 38.6908 88.979 39.2473 88.0308 39.6389C87.0827 40.0511 86.0728 40.2572 85.0216 40.2572H60.1439C59.0515 40.2572 58.0415 40.0511 57.0728 39.6389C56.1247 39.2267 55.2796 38.6908 54.5995 38.0106C53.8987 37.3304 53.3422 36.506 52.93 35.5579C52.5177 34.6098 52.3116 33.5998 52.3116 32.528V29.4776H59.7317V32.528C59.7317 32.796 59.8553 32.9196 60.1233 32.9196H85.001C85.2277 32.9196 85.3308 32.796 85.3308 32.528V24.3248C85.3308 24.0568 85.2277 23.9332 85.001 23.9332H60.1233C59.0309 23.9332 58.0209 23.727 57.0522 23.3148C56.1041 22.9026 55.259 22.3667 54.5789 21.6865C53.8781 21.0064 53.3216 20.1819 52.9094 19.2338C52.4971 18.2857 52.291 17.2757 52.291 16.2039V8.00069C52.291 6.92891 52.4971 5.91896 52.9094 4.97084C53.3216 4.02272 53.8781 3.21889 54.5789 2.51811C55.2796 1.83794 56.1041 1.28143 57.0522 0.889821C58.0003 0.477596 59.0309 0.271484 60.1233 0.271484H85.001C86.0522 0.271484 87.0621 0.477596 88.0102 0.889821C88.9584 1.30204 89.8034 1.83794 90.5042 2.51811C91.2256 3.19828 91.7821 4.02272 92.1943 4.97084C92.6065 5.91896 92.8126 6.92891 92.8126 8.00069V11.0511H92.8333Z" fill="#231F20"/>
<path d="M143 0.291992V7.60897H126.511V40.2365H119.029V7.60897H102.479V0.291992H143Z" fill="#231F20"/>
<path d="M25.7416 51.3643C26.0095 51.3643 26.2569 51.4055 26.5042 51.5085C26.7515 51.6116 26.937 51.7353 27.1226 51.9208C27.2874 52.0856 27.4317 52.2918 27.5348 52.5185C27.6378 52.7452 27.6997 52.9925 27.6997 53.2605V61.2164H25.8447V57.898H19.517V61.2164H17.6826V53.2605C17.6826 52.9925 17.7238 52.7452 17.8475 52.5185C17.9506 52.2918 18.0742 52.0856 18.2597 51.9208C18.4246 51.7559 18.6307 51.6116 18.8781 51.5085C19.1254 51.4055 19.3727 51.3643 19.6407 51.3643H25.7622H25.7416ZM25.8447 56.1048V53.2605C25.8447 53.2605 25.8034 53.1574 25.7416 53.1574H19.6201C19.6201 53.1574 19.517 53.1987 19.517 53.2605V56.1048H25.8447Z" fill="#231F20"/>
<path d="M38.7479 51.3653C39.0159 51.3653 39.2632 51.4066 39.5106 51.5096C39.7579 51.6127 39.9434 51.7363 40.1289 51.9218C40.2938 52.0867 40.4381 52.2928 40.5411 52.5196C40.6442 52.7463 40.706 52.9936 40.706 53.2616V59.3213C40.706 59.5892 40.6648 59.8365 40.5411 60.0633C40.4381 60.29 40.2938 60.4961 40.1289 60.661C39.9434 60.8259 39.7373 60.9702 39.5106 61.0732C39.2838 61.1763 39.0159 61.2175 38.7479 61.2175H30.689V51.3447H38.7479V51.3653ZM38.851 53.2616C38.851 53.2616 38.8098 53.1585 38.7479 53.1585H32.6264C32.6264 53.1585 32.5234 53.1997 32.5234 53.2616V59.3213C32.5234 59.3213 32.5646 59.4243 32.6264 59.4243H38.7479C38.7479 59.4243 38.851 59.3831 38.851 59.3213V53.2616Z" fill="#231F20"/>
<path d="M54.4532 51.3643H56.5761L50.7844 61.237H49.1355L43.3438 51.3643H45.4667L49.9599 59.0316L54.4326 51.3643H54.4532Z" fill="#231F20"/>
<path d="M67.0688 51.3643C67.3367 51.3643 67.584 51.4055 67.8314 51.5085C68.0787 51.6116 68.2642 51.7353 68.4497 51.9208C68.6146 52.0856 68.7589 52.2918 68.8619 52.5185C68.965 52.7452 69.0268 52.9925 69.0268 53.2605V61.2164H67.1718V57.898H60.8442V61.2164H59.0098V53.2605C59.0098 52.9925 59.051 52.7452 59.1747 52.5185C59.2777 52.2918 59.4014 52.0856 59.5869 51.9208C59.7518 51.7559 59.9579 51.6116 60.2052 51.5085C60.4526 51.4055 60.6999 51.3643 60.9678 51.3643H67.0894H67.0688ZM67.1718 56.1048V53.2605C67.1718 53.2605 67.1306 53.1574 67.0688 53.1574H60.9472C60.9472 53.1574 60.8442 53.1987 60.8442 53.2605V56.1048H67.1718Z" fill="#231F20"/>
<path d="M80.1556 51.3643H82.0106V61.237H80.0113L73.8486 54.0025V61.237H72.0142V51.3643H74.0135L80.1762 58.5988V51.3643H80.1556Z" fill="#231F20"/>
<path d="M86.8964 53.1798C86.8964 53.1798 86.7934 53.221 86.7934 53.2828V59.3425C86.7934 59.3425 86.8346 59.4456 86.8964 59.4456H94.9348V61.2594H86.8964C86.6285 61.2594 86.3812 61.2182 86.1338 61.1151C85.8865 61.0121 85.701 60.8884 85.5155 60.7029C85.3506 60.538 85.2063 60.3319 85.1033 60.1052C85.0002 59.8784 84.959 59.6311 84.959 59.3632V53.3035C84.959 53.0355 85.0002 52.7882 85.1033 52.5615C85.2063 52.3347 85.3506 52.1286 85.5155 51.9637C85.6804 51.7988 85.8865 51.6546 86.1338 51.5515C86.3812 51.4485 86.6285 51.4072 86.8964 51.4072H94.9348V53.221H86.8964V53.1798Z" fill="#231F20"/>
<path d="M107.012 53.1779H99.6538V55.4039H105.569V57.2177H99.6538V59.4437H107.012V61.2575H97.7988V51.3848H107.012V53.1986V53.1779Z" fill="#231F20"/>
<path d="M117.916 51.3653C118.184 51.3653 118.432 51.4066 118.679 51.5096C118.926 51.6127 119.112 51.7363 119.297 51.9218C119.462 52.0867 119.607 52.2928 119.71 52.5196C119.813 52.7463 119.874 52.9936 119.874 53.2616V59.3213C119.874 59.5892 119.833 59.8365 119.71 60.0633C119.607 60.29 119.462 60.4961 119.297 60.661C119.112 60.8259 118.906 60.9702 118.679 61.0732C118.452 61.1763 118.184 61.2175 117.916 61.2175H109.857V51.3447H117.916V51.3653ZM118.019 53.2616C118.019 53.2616 117.978 53.1585 117.916 53.1585H111.795C111.795 53.1585 111.692 53.1997 111.692 53.2616V59.3213C111.692 59.3213 111.733 59.4243 111.795 59.4243H117.916C117.916 59.4243 118.019 59.3831 118.019 59.3213V53.2616Z" fill="#231F20"/>
<path d="M27.5971 70.4723H25.7421V69.7097C25.7421 69.7097 25.7215 69.6067 25.6597 69.6067H19.5175C19.5175 69.6067 19.4145 69.6479 19.4145 69.7097V71.7296C19.4145 71.7296 19.4557 71.8327 19.5175 71.8327H25.6597C25.9276 71.8327 26.175 71.8739 26.4017 71.9769C26.6284 72.08 26.8345 72.2037 27.02 72.3892C27.2055 72.5541 27.3292 72.7602 27.4322 72.9869C27.5353 73.2136 27.5971 73.461 27.5971 73.7289V75.7694C27.5971 76.0374 27.5353 76.2847 27.4322 76.5114C27.3292 76.7381 27.1849 76.9442 27.02 77.1091C26.8551 77.274 26.649 77.4183 26.4017 77.5214C26.1543 77.6244 25.907 77.6656 25.6597 77.6656H19.5175C19.2496 77.6656 19.0023 77.6244 18.7549 77.5214C18.5076 77.4183 18.3221 77.2946 18.1366 77.1091C17.9717 76.9442 17.8274 76.7381 17.7244 76.5114C17.6213 76.2847 17.5801 76.0374 17.5801 75.7694V75.0068H19.4145V75.7694C19.4145 75.7694 19.4557 75.8725 19.5175 75.8725H25.6597C25.6597 75.8725 25.7421 75.8312 25.7421 75.7694V73.7289C25.7421 73.7289 25.7215 73.6258 25.6597 73.6258H19.5175C19.2496 73.6258 19.0023 73.5846 18.7549 73.4816C18.5076 73.3785 18.3221 73.2548 18.1366 73.0693C17.9717 72.9045 17.8274 72.6983 17.7244 72.4716C17.6213 72.2449 17.5801 71.9976 17.5801 71.7296V69.7097C17.5801 69.4418 17.6213 69.1944 17.7244 68.9677C17.8274 68.741 17.9717 68.5349 18.1366 68.37C18.3015 68.2051 18.5076 68.0608 18.7549 67.9578C19.0023 67.8547 19.2496 67.8135 19.5175 67.8135H25.6597C25.9276 67.8135 26.175 67.8547 26.4017 67.9578C26.6284 68.0608 26.8345 68.1845 27.02 68.37C27.2055 68.5349 27.3292 68.741 27.4322 68.9677C27.5353 69.1944 27.5971 69.4418 27.5971 69.7097V70.4723Z" fill="#231F20"/>
<path d="M38.6033 67.8135H40.4583V75.7694C40.4583 76.0374 40.4171 76.2847 40.3141 76.5114C40.211 76.7381 40.0667 76.9442 39.9018 77.1091C39.737 77.274 39.5308 77.4183 39.2835 77.5214C39.0362 77.6244 38.7888 77.6656 38.5415 77.6656H32.3994C32.1314 77.6656 31.8841 77.6244 31.6368 77.5214C31.3894 77.4183 31.2039 77.2946 31.0184 77.1091C30.8535 76.9442 30.7092 76.7381 30.6062 76.5114C30.5031 76.2847 30.4619 76.0374 30.4619 75.7694V67.8135H32.2963V75.7694C32.2963 75.7694 32.3375 75.8725 32.3994 75.8725H38.5415C38.5415 75.8725 38.624 75.8312 38.624 75.7694V67.8135H38.6033Z" fill="#231F20"/>
<path d="M53.3203 70.4723H51.4653V69.7097C51.4653 69.7097 51.4447 69.6067 51.3828 69.6067H45.2407C45.2407 69.6067 45.1376 69.6479 45.1376 69.7097V71.7296C45.1376 71.7296 45.1788 71.8327 45.2407 71.8327H51.3828C51.6508 71.8327 51.8981 71.8739 52.1248 71.9769C52.3515 72.08 52.5577 72.2037 52.7432 72.3892C52.9287 72.5541 53.0523 72.7602 53.1554 72.9869C53.2584 73.2136 53.3203 73.461 53.3203 73.7289V75.7694C53.3203 76.0374 53.2584 76.2847 53.1554 76.5114C53.0523 76.7381 52.908 76.9442 52.7432 77.1091C52.5783 77.274 52.3722 77.4183 52.1248 77.5214C51.8775 77.6244 51.6302 77.6656 51.3828 77.6656H45.2407C44.9727 77.6656 44.7254 77.6244 44.4781 77.5214C44.2307 77.4183 44.0452 77.2946 43.8597 77.1091C43.6948 76.9442 43.5506 76.7381 43.4475 76.5114C43.3444 76.2847 43.3032 76.0374 43.3032 75.7694V75.0068H45.1376V75.7694C45.1376 75.7694 45.1788 75.8725 45.2407 75.8725H51.3828C51.3828 75.8725 51.4653 75.8312 51.4653 75.7694V73.7289C51.4653 73.7289 51.4447 73.6258 51.3828 73.6258H45.2407C44.9727 73.6258 44.7254 73.5846 44.4781 73.4816C44.2307 73.3785 44.0452 73.2548 43.8597 73.0693C43.6948 72.9045 43.5506 72.6983 43.4475 72.4716C43.3444 72.2449 43.3032 71.9976 43.3032 71.7296V69.7097C43.3032 69.4418 43.3444 69.1944 43.4475 68.9677C43.5506 68.741 43.6948 68.5349 43.8597 68.37C44.0246 68.2051 44.2307 68.0608 44.4781 67.9578C44.7254 67.8547 44.9727 67.8135 45.2407 67.8135H51.3828C51.6508 67.8135 51.8981 67.8547 52.1248 67.9578C52.3515 68.0608 52.5577 68.1845 52.7432 68.37C52.9287 68.5349 53.0523 68.741 53.1554 68.9677C53.2584 69.1944 53.3203 69.4418 53.3203 69.7097V70.4723Z" fill="#231F20"/>
<path d="M64.265 67.833C64.533 67.833 64.7803 67.8742 65.0276 67.9773C65.275 68.0803 65.4605 68.2246 65.646 68.3895C65.8315 68.5544 65.9552 68.7605 66.0582 69.0078C66.1613 69.2552 66.2231 69.4819 66.2231 69.7499V72.4087C66.2231 72.6766 66.1613 72.924 66.0582 73.1507C65.9552 73.3774 65.8109 73.5835 65.646 73.7484C65.4811 73.9133 65.275 74.0576 65.0276 74.1606C64.7803 74.2637 64.533 74.3049 64.265 74.3049H58.0817H58.0405V77.6852H56.2061V67.833H64.265ZM64.3681 69.7292C64.3681 69.7292 64.3269 69.6262 64.265 69.6262H58.1435C58.1435 69.6262 58.0405 69.6674 58.0405 69.7292V72.3881C58.0405 72.3881 58.0817 72.4911 58.1435 72.4911H64.265C64.265 72.4911 64.3681 72.4499 64.3681 72.3881V69.7292Z" fill="#231F20"/>
<path d="M77.806 69.6262H70.4478V71.8522H76.3632V73.666H70.4478V75.892H77.806V77.7058H68.5928V67.833H77.806V69.6468V69.6262Z" fill="#231F20"/>
<path d="M88.7708 67.8135H90.6258V77.6862H88.6265L82.4638 70.4517V77.6862H80.6294V67.8135H82.6287L88.7914 75.048V67.8135H88.7708Z" fill="#231F20"/>
<path d="M103.528 70.4723H101.673V69.7097C101.673 69.7097 101.653 69.6067 101.591 69.6067H95.4487C95.4487 69.6067 95.3456 69.6479 95.3456 69.7097V71.7296C95.3456 71.7296 95.3869 71.8327 95.4487 71.8327H101.591C101.859 71.8327 102.106 71.8739 102.333 71.9769C102.56 72.08 102.766 72.2037 102.951 72.3892C103.137 72.5541 103.26 72.7602 103.363 72.9869C103.466 73.2136 103.528 73.461 103.528 73.7289V75.7694C103.528 76.0374 103.466 76.2847 103.363 76.5114C103.26 76.7381 103.116 76.9442 102.951 77.1091C102.786 77.274 102.58 77.4183 102.333 77.5214C102.085 77.6244 101.838 77.6656 101.591 77.6656H95.4487C95.1807 77.6656 94.9334 77.6244 94.6861 77.5214C94.4387 77.4183 94.2532 77.2946 94.0677 77.1091C93.9028 76.9442 93.7586 76.7381 93.6555 76.5114C93.5525 76.2847 93.5112 76.0374 93.5112 75.7694V75.0068H95.3456V75.7694C95.3456 75.7694 95.3869 75.8725 95.4487 75.8725H101.591C101.591 75.8725 101.673 75.8312 101.673 75.7694V73.7289C101.673 73.7289 101.653 73.6258 101.591 73.6258H95.4487C95.1807 73.6258 94.9334 73.5846 94.6861 73.4816C94.4387 73.3785 94.2532 73.2548 94.0677 73.0693C93.9028 72.9045 93.7586 72.6983 93.6555 72.4716C93.5525 72.2449 93.5112 71.9976 93.5112 71.7296V69.7097C93.5112 69.4418 93.5525 69.1944 93.6555 68.9677C93.7586 68.741 93.9028 68.5349 94.0677 68.37C94.2326 68.2051 94.4387 68.0608 94.6861 67.9578C94.9334 67.8547 95.1807 67.8135 95.4487 67.8135H101.591C101.859 67.8135 102.106 67.8547 102.333 67.9578C102.56 68.0608 102.766 68.1845 102.951 68.37C103.137 68.5349 103.26 68.741 103.363 68.9677C103.466 69.1944 103.528 69.4418 103.528 69.7097V70.4723Z" fill="#231F20"/>
<path d="M106.416 67.8135H108.25V77.6862H106.416V67.8135Z" fill="#231F20"/>
<path d="M118.905 67.8135C119.173 67.8135 119.421 67.8547 119.647 67.9578C119.874 68.0608 120.08 68.1845 120.266 68.37C120.451 68.5349 120.575 68.741 120.678 68.9677C120.781 69.1944 120.822 69.4418 120.822 69.7097V75.7694C120.822 76.0374 120.781 76.2847 120.678 76.5114C120.575 76.7381 120.431 76.9442 120.266 77.1091C120.101 77.274 119.895 77.4183 119.647 77.5214C119.4 77.6244 119.153 77.6656 118.905 77.6656H112.763C112.495 77.6656 112.248 77.6244 112.001 77.5214C111.753 77.4183 111.568 77.2946 111.382 77.1091C111.217 76.9442 111.073 76.7381 110.97 76.5114C110.867 76.2847 110.826 76.0374 110.826 75.7694V69.7097C110.826 69.4418 110.867 69.1944 110.97 68.9677C111.073 68.741 111.217 68.5349 111.382 68.37C111.547 68.2051 111.753 68.0608 112.001 67.9578C112.248 67.8547 112.495 67.8135 112.763 67.8135H118.905ZM118.905 75.8725C118.905 75.8725 118.988 75.8312 118.988 75.7694V69.7097C118.988 69.7097 118.967 69.6067 118.905 69.6067H112.763C112.763 69.6067 112.66 69.6479 112.66 69.7097V75.7694C112.66 75.7694 112.701 75.8725 112.763 75.8725H118.905Z" fill="#231F20"/>
<path d="M131.911 67.8135H133.766V77.6862H131.767L125.604 70.4517V77.6862H123.77V67.8135H125.769L131.932 75.048V67.8135H131.911Z" fill="#231F20"/>
<path d="M27.144 84.2598V86.0735H23.063V94.1325H21.208V86.0735H17.127V84.2598H27.144Z" fill="#231F20"/>
<path d="M38.8294 86.0754H31.4712V88.3014H37.3866V90.1152H31.4712V92.3412H38.8294V94.155H29.6162V84.2822H38.8294V86.096V86.0754Z" fill="#231F20"/>
<path d="M43.5703 86.0753C43.5703 86.0753 43.4672 86.1165 43.4672 86.1784V92.2381C43.4672 92.2381 43.5084 92.3411 43.5703 92.3411H51.6086V94.1549H43.5703C43.3023 94.1549 43.055 94.1137 42.8077 94.0106C42.5603 93.9076 42.3748 93.7839 42.1893 93.5984C42.0244 93.4335 41.8801 93.2274 41.7771 93.0007C41.674 92.7739 41.6328 92.5266 41.6328 92.2587V86.199C41.6328 85.931 41.674 85.6837 41.7771 85.457C41.8801 85.2302 42.0244 85.0241 42.1893 84.8592C42.3542 84.6943 42.5603 84.5501 42.8077 84.447C43.055 84.344 43.3023 84.3027 43.5703 84.3027H51.6086V86.1165H43.5703V86.0753Z" fill="#231F20"/>
<path d="M64.6983 84.2598V94.1325H62.8639V90.0927H56.3095V94.1325H54.4751V84.2598H56.3095V88.2996H62.8639V84.2598H64.6983Z" fill="#231F20"/>
<path d="M75.8284 84.2598H77.6834V94.1325H75.6842L69.5214 86.898V94.1325H67.687V84.2598H69.6863L75.849 91.4943V84.2598H75.8284Z" fill="#231F20"/>
<path d="M88.689 84.2598C88.9569 84.2598 89.2042 84.301 89.431 84.404C89.6577 84.5071 89.8638 84.6308 90.0493 84.8163C90.2348 84.9812 90.3585 85.1873 90.4615 85.414C90.5646 85.6407 90.6058 85.888 90.6058 86.156V92.2157C90.6058 92.4836 90.5646 92.731 90.4615 92.9577C90.3585 93.1844 90.2142 93.3905 90.0493 93.5554C89.8844 93.7203 89.6783 93.8646 89.431 93.9676C89.1836 94.0707 88.9363 94.1119 88.689 94.1119H82.5468C82.2789 94.1119 82.0315 94.0707 81.7842 93.9676C81.5369 93.8646 81.3514 93.7409 81.1659 93.5554C81.001 93.3905 80.8567 93.1844 80.7537 92.9577C80.6506 92.731 80.6094 92.4836 80.6094 92.2157V86.156C80.6094 85.888 80.6506 85.6407 80.7537 85.414C80.8567 85.1873 81.001 84.9812 81.1659 84.8163C81.3308 84.6514 81.5369 84.5071 81.7842 84.404C82.0315 84.301 82.2789 84.2598 82.5468 84.2598H88.689ZM88.689 92.3187C88.689 92.3187 88.7714 92.2775 88.7714 92.2157V86.156C88.7714 86.156 88.7508 86.0529 88.689 86.0529H82.5468C82.5468 86.0529 82.4438 86.0942 82.4438 86.156V92.2157C82.4438 92.2157 82.485 92.3187 82.5468 92.3187H88.689Z" fill="#231F20"/>
<path d="M93.5532 84.2598H95.3876V92.3394H103.57V94.1531H93.5532V84.2598Z" fill="#231F20"/>
<path d="M113.815 84.2598C114.083 84.2598 114.33 84.301 114.557 84.404C114.784 84.5071 114.99 84.6308 115.175 84.8163C115.361 84.9812 115.484 85.1873 115.588 85.414C115.691 85.6407 115.732 85.888 115.732 86.156V92.2157C115.732 92.4836 115.691 92.731 115.588 92.9577C115.484 93.1844 115.34 93.3905 115.175 93.5554C115.01 93.7203 114.804 93.8646 114.557 93.9676C114.31 94.0707 114.062 94.1119 113.815 94.1119H107.673C107.405 94.1119 107.158 94.0707 106.91 93.9676C106.663 93.8646 106.477 93.7409 106.292 93.5554C106.127 93.3905 105.983 93.1844 105.88 92.9577C105.777 92.731 105.735 92.4836 105.735 92.2157V86.156C105.735 85.888 105.777 85.6407 105.88 85.414C105.983 85.1873 106.127 84.9812 106.292 84.8163C106.457 84.6514 106.663 84.5071 106.91 84.404C107.158 84.301 107.405 84.2598 107.673 84.2598H113.815ZM113.815 92.3187C113.815 92.3187 113.897 92.2775 113.897 92.2157V86.156C113.897 86.156 113.877 86.0529 113.815 86.0529H107.673C107.673 86.0529 107.57 86.0942 107.57 86.156V92.2157C107.57 92.2157 107.611 92.3187 107.673 92.3187H113.815Z" fill="#231F20"/>
<path d="M128.675 86.9392H126.82V86.1766C126.82 86.1766 126.779 86.0735 126.717 86.0735H120.595C120.595 86.0735 120.492 86.1148 120.492 86.1766V92.2363C120.492 92.2363 120.533 92.3394 120.595 92.3394H126.717C126.717 92.3394 126.82 92.2981 126.82 92.2363V90.3607H124.553V88.5469H128.675V92.2157C128.675 92.4836 128.613 92.731 128.51 92.9577C128.407 93.1844 128.263 93.3905 128.098 93.5554C127.933 93.7203 127.727 93.8646 127.479 93.9676C127.232 94.0707 126.985 94.1119 126.717 94.1119H120.595C120.327 94.1119 120.08 94.0707 119.833 93.9676C119.585 93.8646 119.4 93.7409 119.214 93.5554C119.049 93.3905 118.905 93.1844 118.802 92.9577C118.699 92.731 118.658 92.4836 118.658 92.2157V86.156C118.658 85.888 118.699 85.6407 118.802 85.414C118.905 85.1873 119.049 84.9812 119.214 84.8163C119.379 84.6514 119.585 84.5071 119.833 84.404C120.08 84.301 120.327 84.2598 120.595 84.2598H126.717C126.985 84.2598 127.232 84.301 127.479 84.404C127.727 84.5071 127.912 84.6308 128.098 84.8163C128.283 84.9812 128.407 85.1873 128.51 85.414C128.613 85.6407 128.675 85.888 128.675 86.156V86.9186V86.9392Z" fill="#231F20"/>
<path d="M142.155 84.2598L137.538 90.4431V94.1325H135.703V90.4431C135.353 89.9485 134.961 89.4332 134.57 88.9179C134.178 88.4026 133.787 87.8667 133.374 87.3514C132.983 86.8362 132.571 86.3003 132.2 85.785C131.808 85.2697 131.437 84.7544 131.066 84.2598H133.251L136.61 88.4644L139.97 84.2598H142.155Z" fill="#231F20"/>
<path d="M39.9239 4.99135C39.5117 4.04323 38.9552 3.2394 38.2338 2.53861C37.5124 1.85844 36.688 1.30194 35.7192 0.910329C34.7711 0.498104 33.7406 0.291992 32.6482 0.291992H7.83226C6.73987 0.291992 5.72992 0.498104 4.76119 0.910329C3.81307 1.32255 2.96801 1.85844 2.28784 2.53861C1.60767 3.21878 1.03056 4.04323 0.618336 4.99135C0.206112 5.93946 0 6.94941 0 8.0212V40.2571H7.44065V26.8186H33.0604V40.2571H40.5423V8.00058C40.5423 6.9288 40.3361 5.91885 39.9239 4.97074V4.99135ZM33.0604 19.5016H7.44065V8.00058C7.44065 7.73264 7.56431 7.60897 7.83226 7.60897H32.6482C32.9161 7.60897 33.0398 7.73264 33.0398 8.00058V19.481L33.0604 19.5016ZM0 95.0005H7.44065V49.965H0V95.0005Z" fill="#231F20"/>
</svg>
