<svg width="287" height="62" viewBox="0 0 287 62" fill="none" xmlns="http://www.w3.org/2000/svg">
<path d="M26.3337 52.6674C40.8774 52.6674 52.6674 40.8774 52.6674 26.3337C52.6674 11.79 40.8774 0 26.3337 0C11.79 0 0 11.79 0 26.3337C0 40.8774 11.79 52.6674 26.3337 52.6674Z" fill="url(#paint0_linear_493_5559)"/>
<path d="M17.173 36.5753V12.3037H24.0015V35.7978C24.0015 42.2207 26.0635 44.5194 31.6751 44.5194C37.2866 44.5194 39.4163 42.1869 39.4163 35.7978V12.3037H46.2448V36.3049C46.2448 46.1758 41.2756 51.1451 31.6751 51.1451C22.0746 51.1451 17.173 46.2772 17.173 36.5753Z" fill="white"/>
<path d="M77.9198 32.9575V50.2992H71.3618V34.6139C71.3618 32.7547 71.3618 28.6306 66.3925 28.6306C60.2739 28.6306 60.2739 34.783 60.2739 39.5832V50.333H53.7158V23.4247H60.2739V26.5347C62.1669 23.9655 65.1417 22.8838 68.387 22.8838C74.438 22.8838 77.886 26.6023 77.886 32.9575H77.9198Z" fill="#333333"/>
<path d="M84.8834 23.4258H91.4415V50.3003H84.8834V23.4258Z" fill="#333333"/>
<path d="M106.653 28.5987V42.2895C106.653 44.4192 107.972 45.3996 110.101 45.3996C111.014 45.3996 112.163 45.1967 113.38 44.7911V50.0308C111.758 50.5716 110.101 50.8421 108.479 50.8421C103.949 50.8421 100.129 48.5096 100.129 42.7628V28.5987H95.7683V23.4266H100.129V18.2546L106.687 13.3867V23.4266H113.38V28.5987H106.687H106.653Z" fill="#333333"/>
<path d="M165.946 29.7478V50.3009H161.078L160.267 46.3796C158.036 49.422 153.946 51.1122 149.044 51.1122C138.429 51.1122 130.283 43.2696 130.283 31.2014C130.283 19.9107 137.415 11.4258 148.807 11.4258C156.549 11.4258 162.769 15.3471 165.541 22.5475L159.287 25.0152C157.597 20.3164 153.844 17.9162 148.706 17.9162C141.404 17.9162 137.111 22.8179 137.111 31.1676C137.111 39.5173 141.742 44.6218 149.484 44.6218C155.602 44.6218 159.185 41.6132 159.185 36.5087V36.0016H150.667V29.7478H165.946Z" fill="#333333"/>
<path d="M192.044 24.4056L188.866 30.1862C187.954 29.5777 186.906 29.2734 185.587 29.2734C181.598 29.2734 179.638 31.7412 179.638 36.8118V50.3336H173.08V23.4253H179.671V27.9889C180.821 24.676 183.829 22.8506 186.872 22.8506C188.663 22.8506 190.252 23.29 192.01 24.3718L192.044 24.4056Z" fill="#333333"/>
<path d="M191.571 36.845C191.571 29.2052 196.709 22.8838 205.025 22.8838C213.341 22.8838 218.479 29.2052 218.479 36.845C218.479 44.4848 213.307 50.8401 205.025 50.8401C196.743 50.8401 191.571 44.4172 191.571 36.845ZM211.955 36.845C211.955 32.4166 209.994 28.6306 205.025 28.6306C200.055 28.6306 198.095 32.4505 198.095 36.845C198.095 41.2396 200.055 45.1271 205.025 45.1271C209.994 45.1271 211.955 41.2058 211.955 36.845Z" fill="#333333"/>
<path d="M247.078 23.4258V50.3003H240.519V47.1903C238.626 49.7595 235.652 50.8412 232.508 50.8412C225.747 50.8412 222.907 45.9396 222.907 40.2266V23.4258H229.465V38.5702C229.465 40.4294 229.465 45.1283 234.435 45.1283C240.553 45.1283 240.553 38.435 240.553 33.6347V23.4258H247.111H247.078Z" fill="#333333"/>
<path d="M280.307 36.8788C280.307 45.668 275.574 50.8401 268.983 50.8401C265.94 50.8401 262.932 49.5893 261.241 47.5611V61.4209H254.683V23.4247H261.241V26.0952C263.101 23.7965 266.109 22.8838 268.983 22.8838C276.284 22.8838 280.307 28.8334 280.307 36.8788ZM273.749 36.8112C273.749 31.5377 271.721 28.5967 267.36 28.5967C262.627 28.5967 260.599 32.0448 260.599 36.8112C260.599 41.5777 262.627 45.0933 267.292 45.0933C271.653 45.0933 273.715 42.0509 273.715 36.8112H273.749Z" fill="#333333"/>
<path d="M84.7142 17.4095V20.0124H91.6103V13.3867L84.7142 17.4095Z" fill="#333333"/>
<path d="M283.687 22.2757L282.605 20.4164H282.031V22.2757H281.253V17.8135H282.707C283.755 17.8135 284.228 18.2867 284.228 19.098C284.228 19.7403 283.924 20.146 283.417 20.315L284.633 22.2419H283.721L283.687 22.2757ZM282.639 19.7065C283.146 19.7065 283.45 19.5713 283.45 19.1319C283.45 18.6924 283.18 18.5572 282.639 18.5572H282.064V19.7065H282.639Z" fill="#333333"/>
<path d="M282.538 24.609C280.07 24.609 278.076 22.6145 278.076 20.1468C278.076 17.679 280.07 15.6846 282.538 15.6846C285.006 15.6846 287 17.679 287 20.1468C287 22.6145 285.006 24.609 282.538 24.609ZM282.538 16.4959C280.543 16.4959 278.887 18.1185 278.887 20.1468C278.887 22.175 280.51 23.7976 282.504 23.7976C284.499 23.7976 286.155 22.175 286.155 20.1468C286.155 18.1185 284.532 16.4959 282.538 16.4959Z" fill="#333333"/>
<defs>
<linearGradient id="paint0_linear_493_5559" x1="0" y1="26.3337" x2="52.6336" y2="26.3337" gradientUnits="userSpaceOnUse">
<stop stop-color="#145179"/>
<stop offset="1" stop-color="#0F3547"/>
</linearGradient>
</defs>
</svg>
