<svg width="171" height="33" viewBox="0 0 171 33" fill="none" xmlns="http://www.w3.org/2000/svg">
<g clip-path="url(#clip0_1_957)">
<path fill-rule="evenodd" clip-rule="evenodd" d="M38.0592 32.9998H22.9419L51.5495 5.01904H58.5645L38.0592 32.9998Z" fill="#0369AE"/>
<path fill-rule="evenodd" clip-rule="evenodd" d="M15.3054 32.9836H0L40.9043 5.01904H48.001L15.3054 32.9836Z" fill="#E81D3E"/>
<path fill-rule="evenodd" clip-rule="evenodd" d="M108.258 22.5098H118.903V12.02H108.258V22.5098ZM101.161 5.01074H118.911C122.459 5.01074 126.008 8.50732 126.008 12.0039C126.008 15.2991 126.008 19.2146 126.008 22.5098C126.008 26.0063 122.459 29.5029 118.911 29.5029H108.258V32.9834H101.161V5.01074Z" fill="#231F20"/>
<path fill-rule="evenodd" clip-rule="evenodd" d="M69.2096 22.502V12.0122H66.1927L60.0444 22.51H69.2096V22.502ZM55.9482 29.4951L53.896 32.9917H45.7119L62.1129 5.01904H76.3145V32.9998H69.2178V29.5032H55.9564L55.9482 29.4951Z" fill="#231F20"/>
<path fill-rule="evenodd" clip-rule="evenodd" d="M97.6046 32.9998L79.8628 32.9836V5.01904H86.9595V26.0066H97.6046V32.9998Z" fill="#231F20"/>
<path d="M136.653 5.01074H129.556V32.9834H136.653V5.01074Z" fill="#231F20"/>
<path fill-rule="evenodd" clip-rule="evenodd" d="M165.056 12.0122V5.00293H147.363C143.75 5.00293 140.209 8.49146 140.209 12.0525C140.209 16.2983 140.209 21.6882 140.209 25.9341C140.209 29.5032 143.741 32.9836 147.363 32.9836C154.705 32.9836 165.056 32.9836 165.056 32.9836V25.9985H147.306V12.0122H165.056Z" fill="#231F20"/>
<path d="M169.757 2.22388C169.757 2.28833 169.749 2.33667 169.724 2.39307C169.7 2.44141 169.667 2.48975 169.626 2.53003C169.585 2.57031 169.536 2.60254 169.479 2.62671C169.422 2.65088 169.365 2.65894 169.307 2.65894H169.185L169.757 3.32764V3.43237H169.291L168.621 2.65894H167.868H167.86V3.43237H167.435V1.18457H169.299C169.365 1.18457 169.422 1.19263 169.471 1.2168C169.528 1.24097 169.577 1.27319 169.618 1.31348C169.659 1.35376 169.692 1.4021 169.716 1.45044C169.741 1.50684 169.749 1.56323 169.749 1.61963V2.22388H169.757ZM169.307 2.24805C169.307 2.24805 169.332 2.24805 169.332 2.22388V1.61963C169.332 1.61963 169.332 1.59546 169.307 1.59546H167.885C167.885 1.59546 167.86 1.59546 167.86 1.61963V2.22388C167.86 2.22388 167.86 2.24805 167.885 2.24805H169.307Z" fill="#231F20"/>
<path d="M168.555 4.81787C167.206 4.81787 166.111 3.73828 166.111 2.40894C166.111 1.07959 167.206 0 168.555 0C169.904 0 171 1.07959 171 2.40894C171 3.73828 169.904 4.81787 168.555 4.81787ZM168.555 0.322266C167.386 0.322266 166.438 1.25684 166.438 2.40894C166.438 3.56104 167.386 4.49561 168.555 4.49561C169.725 4.49561 170.673 3.56104 170.673 2.40894C170.673 1.25684 169.725 0.322266 168.555 0.322266Z" fill="#231F20"/>
</g>
<defs>
<clipPath id="clip0_1_957">
<rect width="171" height="33" fill="white"/>
</clipPath>
</defs>
</svg>
