<svg width="48" height="53" viewBox="0 0 48 53" fill="none" xmlns="http://www.w3.org/2000/svg">
<g clip-path="url(#clip0_883_20213)">
<path d="M24 4C15.6 4 8 10.44 8 20.4C8 26.76 12.9 34.24 22.68 42.86C23.44 43.52 24.58 43.52 25.34 42.86C35.1 34.24 40 26.76 40 20.4C40 10.44 32.4 4 24 4ZM24 24C21.8 24 20 22.2 20 20C20 17.8 21.8 16 24 16C26.2 16 28 17.8 28 20C28 22.2 26.2 24 24 24Z" fill="#F51414"/>
<g filter="url(#filter0_ddddd_883_20213)">
<circle cx="24" cy="47.355" r="2" fill="#F51414"/>
</g>
</g>
<defs>
<filter id="filter0_ddddd_883_20213" x="21" y="45.355" width="6" height="7" filterUnits="userSpaceOnUse" color-interpolation-filters="sRGB">
<feFlood flood-opacity="0" result="BackgroundImageFix"/>
<feColorMatrix in="SourceAlpha" type="matrix" values="0 0 0 0 0 0 0 0 0 0 0 0 0 0 0 0 0 0 127 0" result="hardAlpha"/>
<feOffset/>
<feColorMatrix type="matrix" values="0 0 0 0 0 0 0 0 0 0 0 0 0 0 0 0 0 0 0.2 0"/>
<feBlend mode="normal" in2="BackgroundImageFix" result="effect1_dropShadow_883_20213"/>
<feColorMatrix in="SourceAlpha" type="matrix" values="0 0 0 0 0 0 0 0 0 0 0 0 0 0 0 0 0 0 127 0" result="hardAlpha"/>
<feOffset/>
<feColorMatrix type="matrix" values="0 0 0 0 0 0 0 0 0 0 0 0 0 0 0 0 0 0 0.2 0"/>
<feBlend mode="normal" in2="effect1_dropShadow_883_20213" result="effect2_dropShadow_883_20213"/>
<feColorMatrix in="SourceAlpha" type="matrix" values="0 0 0 0 0 0 0 0 0 0 0 0 0 0 0 0 0 0 127 0" result="hardAlpha"/>
<feOffset dy="1"/>
<feGaussianBlur stdDeviation="0.5"/>
<feColorMatrix type="matrix" values="0 0 0 0 0 0 0 0 0 0 0 0 0 0 0 0 0 0 0.17 0"/>
<feBlend mode="normal" in2="effect2_dropShadow_883_20213" result="effect3_dropShadow_883_20213"/>
<feColorMatrix in="SourceAlpha" type="matrix" values="0 0 0 0 0 0 0 0 0 0 0 0 0 0 0 0 0 0 127 0" result="hardAlpha"/>
<feOffset dy="1"/>
<feGaussianBlur stdDeviation="0.5"/>
<feColorMatrix type="matrix" values="0 0 0 0 0 0 0 0 0 0 0 0 0 0 0 0 0 0 0.1 0"/>
<feBlend mode="normal" in2="effect3_dropShadow_883_20213" result="effect4_dropShadow_883_20213"/>
<feColorMatrix in="SourceAlpha" type="matrix" values="0 0 0 0 0 0 0 0 0 0 0 0 0 0 0 0 0 0 127 0" result="hardAlpha"/>
<feOffset dy="2"/>
<feGaussianBlur stdDeviation="0.5"/>
<feColorMatrix type="matrix" values="0 0 0 0 0 0 0 0 0 0 0 0 0 0 0 0 0 0 0.03 0"/>
<feBlend mode="normal" in2="effect4_dropShadow_883_20213" result="effect5_dropShadow_883_20213"/>
<feBlend mode="normal" in="SourceGraphic" in2="effect5_dropShadow_883_20213" result="shape"/>
</filter>
<clipPath id="clip0_883_20213">
<rect width="48" height="53" fill="white"/>
</clipPath>
</defs>
</svg>
