<svg width="16" height="16" viewBox="0 0 16 16" fill="none" xmlns="http://www.w3.org/2000/svg">
<path d="M16 14.599L11.24 9.83877C12.9953 7.41262 12.7808 4.00331 10.5954 1.81786C8.1717 -0.605953 4.24152 -0.605953 1.81779 1.81786C-0.605931 4.24167 -0.605931 8.17141 1.81779 10.5952C4.00317 12.7807 7.41235 12.9951 9.83841 11.2398L14.5984 16L15.9994 14.599H16ZM3.10804 9.30552C1.39645 7.59387 1.39645 4.81922 3.10804 3.10815C4.81962 1.39709 7.59418 1.3965 9.30518 3.10815C11.0162 4.8198 11.0168 7.59445 9.30518 9.30552C7.59359 11.0172 4.81904 11.0172 3.10804 9.30552Z" fill="#CCC9C9"/>
</svg>
