<svg width="23" height="23" viewBox="0 0 23 23" fill="none" xmlns="http://www.w3.org/2000/svg">
<path d="M22.5352 20.5619L15.8309 13.8574C18.3032 10.4403 18.0011 5.63847 14.9231 2.56037C11.5094 -0.853456 5.97397 -0.853456 2.56027 2.56037C-0.853425 5.97419 -0.853425 11.509 2.56027 14.9229C5.63827 18.001 10.4399 18.303 13.8569 15.8307L20.5612 22.5352L22.5344 20.5619H22.5352ZM4.37752 13.1064C1.96684 10.6956 1.96684 6.78763 4.37752 4.37768C6.7882 1.96773 10.696 1.96691 13.1059 4.37768C15.5157 6.78845 15.5166 10.6964 13.1059 13.1064C10.6952 15.5171 6.78738 15.5171 4.37752 13.1064Z" fill="white"/>
</svg>
