<svg width="56" height="58" viewBox="0 0 56 58" fill="none" xmlns="http://www.w3.org/2000/svg">
<path fill-rule="evenodd" clip-rule="evenodd" d="M9.96289 25.8052L25.4518 47.7828L56.0001 3.41177L51.0126 0L25.3914 37.2039L14.9141 22.3453L9.96289 25.8052ZM47.8167 51.1766V22.7614H47.8106L50.837 18.3671V51.1706C50.837 54.932 47.7622 57.9941 43.9853 57.9941H6.85168C3.07477 57.9941 0 54.932 0 51.1706V14.1898C0 10.4284 3.07477 7.36621 6.85168 7.36621H40.8016L38.7255 10.3801H6.85168C4.74536 10.3801 3.02637 12.086 3.02637 14.1898V51.1766C3.02637 53.2744 4.73932 54.9863 6.85168 54.9863H43.9913C46.0977 54.9863 47.8167 53.2804 47.8167 51.1766Z" fill="#68D537"/>
</svg>
